%TF.GenerationSoftware,KiCad,Pcbnew,(6.0.1)*%
%TF.CreationDate,2023-05-30T11:39:12+03:00*%
%TF.ProjectId,LED PCB,4c454420-5043-4422-9e6b-696361645f70,rev?*%
%TF.SameCoordinates,PX5f5e100PY5f5e100*%
%TF.FileFunction,Soldermask,Top*%
%TF.FilePolarity,Negative*%
%FSLAX46Y46*%
G04 Gerber Fmt 4.6, Leading zero omitted, Abs format (unit mm)*
G04 Created by KiCad (PCBNEW (6.0.1)) date 2023-05-30 11:39:12*
%MOMM*%
%LPD*%
G01*
G04 APERTURE LIST*
G04 Aperture macros list*
%AMRoundRect*
0 Rectangle with rounded corners*
0 $1 Rounding radius*
0 $2 $3 $4 $5 $6 $7 $8 $9 X,Y pos of 4 corners*
0 Add a 4 corners polygon primitive as box body*
4,1,4,$2,$3,$4,$5,$6,$7,$8,$9,$2,$3,0*
0 Add four circle primitives for the rounded corners*
1,1,$1+$1,$2,$3*
1,1,$1+$1,$4,$5*
1,1,$1+$1,$6,$7*
1,1,$1+$1,$8,$9*
0 Add four rect primitives between the rounded corners*
20,1,$1+$1,$2,$3,$4,$5,0*
20,1,$1+$1,$4,$5,$6,$7,0*
20,1,$1+$1,$6,$7,$8,$9,0*
20,1,$1+$1,$8,$9,$2,$3,0*%
%AMFreePoly0*
4,1,21,1.792426,0.667426,1.810000,0.625000,1.810000,0.125000,1.792426,0.082574,1.750000,0.065000,1.460000,0.065000,1.460000,-0.625000,1.442426,-0.667426,1.400000,-0.685000,-1.400000,-0.685000,-1.442426,-0.667426,-1.460000,-0.625000,-1.460000,0.065000,-1.750000,0.065000,-1.792426,0.082574,-1.810000,0.125000,-1.810000,0.625000,-1.792426,0.667426,-1.750000,0.685000,1.750000,0.685000,
1.792426,0.667426,1.792426,0.667426,$1*%
G04 Aperture macros list end*
%ADD10C,0.010000*%
%ADD11FreePoly0,90.000000*%
%ADD12FreePoly0,270.000000*%
%ADD13R,0.970000X1.840000*%
%ADD14R,2.030000X1.840000*%
%ADD15RoundRect,0.250000X0.625000X-0.312500X0.625000X0.312500X-0.625000X0.312500X-0.625000X-0.312500X0*%
%ADD16RoundRect,1.500000X-2.500000X-1.500000X2.500000X-1.500000X2.500000X1.500000X-2.500000X1.500000X0*%
%ADD17RoundRect,1.000000X-3.000000X-1.000000X3.000000X-1.000000X3.000000X1.000000X-3.000000X1.000000X0*%
G04 APERTURE END LIST*
D10*
%TO.C,U3*%
X319700000Y8350000D02*
X318400000Y8350000D01*
X318400000Y8350000D02*
X318400000Y9650000D01*
X318400000Y9650000D02*
X319700000Y9650000D01*
X319700000Y9650000D02*
X319700000Y8350000D01*
G36*
X319700000Y8350000D02*
G01*
X318400000Y8350000D01*
X318400000Y9650000D01*
X319700000Y9650000D01*
X319700000Y8350000D01*
G37*
X319700000Y8350000D02*
X318400000Y8350000D01*
X318400000Y9650000D01*
X319700000Y9650000D01*
X319700000Y8350000D01*
X319700000Y6050000D02*
X318400000Y6050000D01*
X318400000Y6050000D02*
X318400000Y7350000D01*
X318400000Y7350000D02*
X319700000Y7350000D01*
X319700000Y7350000D02*
X319700000Y6050000D01*
G36*
X319700000Y6050000D02*
G01*
X318400000Y6050000D01*
X318400000Y7350000D01*
X319700000Y7350000D01*
X319700000Y6050000D01*
G37*
X319700000Y6050000D02*
X318400000Y6050000D01*
X318400000Y7350000D01*
X319700000Y7350000D01*
X319700000Y6050000D01*
X319700000Y10650000D02*
X318400000Y10650000D01*
X318400000Y10650000D02*
X318400000Y11950000D01*
X318400000Y11950000D02*
X319700000Y11950000D01*
X319700000Y11950000D02*
X319700000Y10650000D01*
G36*
X319700000Y10650000D02*
G01*
X318400000Y10650000D01*
X318400000Y11950000D01*
X319700000Y11950000D01*
X319700000Y10650000D01*
G37*
X319700000Y10650000D02*
X318400000Y10650000D01*
X318400000Y11950000D01*
X319700000Y11950000D01*
X319700000Y10650000D01*
X313600000Y7200000D02*
X312300000Y7200000D01*
X312300000Y7200000D02*
X312300000Y10800000D01*
X312300000Y10800000D02*
X313600000Y10800000D01*
X313600000Y10800000D02*
X313600000Y7200000D01*
G36*
X313600000Y7200000D02*
G01*
X312300000Y7200000D01*
X312300000Y10800000D01*
X313600000Y10800000D01*
X313600000Y7200000D01*
G37*
X313600000Y7200000D02*
X312300000Y7200000D01*
X312300000Y10800000D01*
X313600000Y10800000D01*
X313600000Y7200000D01*
%TO.C,U1*%
X162700000Y8350000D02*
X161400000Y8350000D01*
X161400000Y8350000D02*
X161400000Y9650000D01*
X161400000Y9650000D02*
X162700000Y9650000D01*
X162700000Y9650000D02*
X162700000Y8350000D01*
G36*
X162700000Y8350000D02*
G01*
X161400000Y8350000D01*
X161400000Y9650000D01*
X162700000Y9650000D01*
X162700000Y8350000D01*
G37*
X162700000Y8350000D02*
X161400000Y8350000D01*
X161400000Y9650000D01*
X162700000Y9650000D01*
X162700000Y8350000D01*
X162700000Y6050000D02*
X161400000Y6050000D01*
X161400000Y6050000D02*
X161400000Y7350000D01*
X161400000Y7350000D02*
X162700000Y7350000D01*
X162700000Y7350000D02*
X162700000Y6050000D01*
G36*
X162700000Y6050000D02*
G01*
X161400000Y6050000D01*
X161400000Y7350000D01*
X162700000Y7350000D01*
X162700000Y6050000D01*
G37*
X162700000Y6050000D02*
X161400000Y6050000D01*
X161400000Y7350000D01*
X162700000Y7350000D01*
X162700000Y6050000D01*
X162700000Y10650000D02*
X161400000Y10650000D01*
X161400000Y10650000D02*
X161400000Y11950000D01*
X161400000Y11950000D02*
X162700000Y11950000D01*
X162700000Y11950000D02*
X162700000Y10650000D01*
G36*
X162700000Y10650000D02*
G01*
X161400000Y10650000D01*
X161400000Y11950000D01*
X162700000Y11950000D01*
X162700000Y10650000D01*
G37*
X162700000Y10650000D02*
X161400000Y10650000D01*
X161400000Y11950000D01*
X162700000Y11950000D01*
X162700000Y10650000D01*
X156600000Y7200000D02*
X155300000Y7200000D01*
X155300000Y7200000D02*
X155300000Y10800000D01*
X155300000Y10800000D02*
X156600000Y10800000D01*
X156600000Y10800000D02*
X156600000Y7200000D01*
G36*
X156600000Y7200000D02*
G01*
X155300000Y7200000D01*
X155300000Y10800000D01*
X156600000Y10800000D01*
X156600000Y7200000D01*
G37*
X156600000Y7200000D02*
X155300000Y7200000D01*
X155300000Y10800000D01*
X156600000Y10800000D01*
X156600000Y7200000D01*
%TO.C,U9*%
X790700000Y8350000D02*
X789400000Y8350000D01*
X789400000Y8350000D02*
X789400000Y9650000D01*
X789400000Y9650000D02*
X790700000Y9650000D01*
X790700000Y9650000D02*
X790700000Y8350000D01*
G36*
X790700000Y8350000D02*
G01*
X789400000Y8350000D01*
X789400000Y9650000D01*
X790700000Y9650000D01*
X790700000Y8350000D01*
G37*
X790700000Y8350000D02*
X789400000Y8350000D01*
X789400000Y9650000D01*
X790700000Y9650000D01*
X790700000Y8350000D01*
X790700000Y6050000D02*
X789400000Y6050000D01*
X789400000Y6050000D02*
X789400000Y7350000D01*
X789400000Y7350000D02*
X790700000Y7350000D01*
X790700000Y7350000D02*
X790700000Y6050000D01*
G36*
X790700000Y6050000D02*
G01*
X789400000Y6050000D01*
X789400000Y7350000D01*
X790700000Y7350000D01*
X790700000Y6050000D01*
G37*
X790700000Y6050000D02*
X789400000Y6050000D01*
X789400000Y7350000D01*
X790700000Y7350000D01*
X790700000Y6050000D01*
X790700000Y10650000D02*
X789400000Y10650000D01*
X789400000Y10650000D02*
X789400000Y11950000D01*
X789400000Y11950000D02*
X790700000Y11950000D01*
X790700000Y11950000D02*
X790700000Y10650000D01*
G36*
X790700000Y10650000D02*
G01*
X789400000Y10650000D01*
X789400000Y11950000D01*
X790700000Y11950000D01*
X790700000Y10650000D01*
G37*
X790700000Y10650000D02*
X789400000Y10650000D01*
X789400000Y11950000D01*
X790700000Y11950000D01*
X790700000Y10650000D01*
X784600000Y7200000D02*
X783300000Y7200000D01*
X783300000Y7200000D02*
X783300000Y10800000D01*
X783300000Y10800000D02*
X784600000Y10800000D01*
X784600000Y10800000D02*
X784600000Y7200000D01*
G36*
X784600000Y7200000D02*
G01*
X783300000Y7200000D01*
X783300000Y10800000D01*
X784600000Y10800000D01*
X784600000Y7200000D01*
G37*
X784600000Y7200000D02*
X783300000Y7200000D01*
X783300000Y10800000D01*
X784600000Y10800000D01*
X784600000Y7200000D01*
%TO.C,U7*%
X633700000Y8350000D02*
X632400000Y8350000D01*
X632400000Y8350000D02*
X632400000Y9650000D01*
X632400000Y9650000D02*
X633700000Y9650000D01*
X633700000Y9650000D02*
X633700000Y8350000D01*
G36*
X633700000Y8350000D02*
G01*
X632400000Y8350000D01*
X632400000Y9650000D01*
X633700000Y9650000D01*
X633700000Y8350000D01*
G37*
X633700000Y8350000D02*
X632400000Y8350000D01*
X632400000Y9650000D01*
X633700000Y9650000D01*
X633700000Y8350000D01*
X633700000Y6050000D02*
X632400000Y6050000D01*
X632400000Y6050000D02*
X632400000Y7350000D01*
X632400000Y7350000D02*
X633700000Y7350000D01*
X633700000Y7350000D02*
X633700000Y6050000D01*
G36*
X633700000Y6050000D02*
G01*
X632400000Y6050000D01*
X632400000Y7350000D01*
X633700000Y7350000D01*
X633700000Y6050000D01*
G37*
X633700000Y6050000D02*
X632400000Y6050000D01*
X632400000Y7350000D01*
X633700000Y7350000D01*
X633700000Y6050000D01*
X633700000Y10650000D02*
X632400000Y10650000D01*
X632400000Y10650000D02*
X632400000Y11950000D01*
X632400000Y11950000D02*
X633700000Y11950000D01*
X633700000Y11950000D02*
X633700000Y10650000D01*
G36*
X633700000Y10650000D02*
G01*
X632400000Y10650000D01*
X632400000Y11950000D01*
X633700000Y11950000D01*
X633700000Y10650000D01*
G37*
X633700000Y10650000D02*
X632400000Y10650000D01*
X632400000Y11950000D01*
X633700000Y11950000D01*
X633700000Y10650000D01*
X627600000Y7200000D02*
X626300000Y7200000D01*
X626300000Y7200000D02*
X626300000Y10800000D01*
X626300000Y10800000D02*
X627600000Y10800000D01*
X627600000Y10800000D02*
X627600000Y7200000D01*
G36*
X627600000Y7200000D02*
G01*
X626300000Y7200000D01*
X626300000Y10800000D01*
X627600000Y10800000D01*
X627600000Y7200000D01*
G37*
X627600000Y7200000D02*
X626300000Y7200000D01*
X626300000Y10800000D01*
X627600000Y10800000D01*
X627600000Y7200000D01*
%TO.C,U10*%
X790700000Y17350000D02*
X789400000Y17350000D01*
X789400000Y17350000D02*
X789400000Y18650000D01*
X789400000Y18650000D02*
X790700000Y18650000D01*
X790700000Y18650000D02*
X790700000Y17350000D01*
G36*
X790700000Y17350000D02*
G01*
X789400000Y17350000D01*
X789400000Y18650000D01*
X790700000Y18650000D01*
X790700000Y17350000D01*
G37*
X790700000Y17350000D02*
X789400000Y17350000D01*
X789400000Y18650000D01*
X790700000Y18650000D01*
X790700000Y17350000D01*
X790700000Y15050000D02*
X789400000Y15050000D01*
X789400000Y15050000D02*
X789400000Y16350000D01*
X789400000Y16350000D02*
X790700000Y16350000D01*
X790700000Y16350000D02*
X790700000Y15050000D01*
G36*
X790700000Y15050000D02*
G01*
X789400000Y15050000D01*
X789400000Y16350000D01*
X790700000Y16350000D01*
X790700000Y15050000D01*
G37*
X790700000Y15050000D02*
X789400000Y15050000D01*
X789400000Y16350000D01*
X790700000Y16350000D01*
X790700000Y15050000D01*
X790700000Y19650000D02*
X789400000Y19650000D01*
X789400000Y19650000D02*
X789400000Y20950000D01*
X789400000Y20950000D02*
X790700000Y20950000D01*
X790700000Y20950000D02*
X790700000Y19650000D01*
G36*
X790700000Y19650000D02*
G01*
X789400000Y19650000D01*
X789400000Y20950000D01*
X790700000Y20950000D01*
X790700000Y19650000D01*
G37*
X790700000Y19650000D02*
X789400000Y19650000D01*
X789400000Y20950000D01*
X790700000Y20950000D01*
X790700000Y19650000D01*
X784600000Y16200000D02*
X783300000Y16200000D01*
X783300000Y16200000D02*
X783300000Y19800000D01*
X783300000Y19800000D02*
X784600000Y19800000D01*
X784600000Y19800000D02*
X784600000Y16200000D01*
G36*
X784600000Y16200000D02*
G01*
X783300000Y16200000D01*
X783300000Y19800000D01*
X784600000Y19800000D01*
X784600000Y16200000D01*
G37*
X784600000Y16200000D02*
X783300000Y16200000D01*
X783300000Y19800000D01*
X784600000Y19800000D01*
X784600000Y16200000D01*
%TO.C,U4*%
X319700000Y17350000D02*
X318400000Y17350000D01*
X318400000Y17350000D02*
X318400000Y18650000D01*
X318400000Y18650000D02*
X319700000Y18650000D01*
X319700000Y18650000D02*
X319700000Y17350000D01*
G36*
X319700000Y17350000D02*
G01*
X318400000Y17350000D01*
X318400000Y18650000D01*
X319700000Y18650000D01*
X319700000Y17350000D01*
G37*
X319700000Y17350000D02*
X318400000Y17350000D01*
X318400000Y18650000D01*
X319700000Y18650000D01*
X319700000Y17350000D01*
X319700000Y15050000D02*
X318400000Y15050000D01*
X318400000Y15050000D02*
X318400000Y16350000D01*
X318400000Y16350000D02*
X319700000Y16350000D01*
X319700000Y16350000D02*
X319700000Y15050000D01*
G36*
X319700000Y15050000D02*
G01*
X318400000Y15050000D01*
X318400000Y16350000D01*
X319700000Y16350000D01*
X319700000Y15050000D01*
G37*
X319700000Y15050000D02*
X318400000Y15050000D01*
X318400000Y16350000D01*
X319700000Y16350000D01*
X319700000Y15050000D01*
X319700000Y19650000D02*
X318400000Y19650000D01*
X318400000Y19650000D02*
X318400000Y20950000D01*
X318400000Y20950000D02*
X319700000Y20950000D01*
X319700000Y20950000D02*
X319700000Y19650000D01*
G36*
X319700000Y19650000D02*
G01*
X318400000Y19650000D01*
X318400000Y20950000D01*
X319700000Y20950000D01*
X319700000Y19650000D01*
G37*
X319700000Y19650000D02*
X318400000Y19650000D01*
X318400000Y20950000D01*
X319700000Y20950000D01*
X319700000Y19650000D01*
X313600000Y16200000D02*
X312300000Y16200000D01*
X312300000Y16200000D02*
X312300000Y19800000D01*
X312300000Y19800000D02*
X313600000Y19800000D01*
X313600000Y19800000D02*
X313600000Y16200000D01*
G36*
X313600000Y16200000D02*
G01*
X312300000Y16200000D01*
X312300000Y19800000D01*
X313600000Y19800000D01*
X313600000Y16200000D01*
G37*
X313600000Y16200000D02*
X312300000Y16200000D01*
X312300000Y19800000D01*
X313600000Y19800000D01*
X313600000Y16200000D01*
%TO.C,U12*%
X947700000Y17350000D02*
X946400000Y17350000D01*
X946400000Y17350000D02*
X946400000Y18650000D01*
X946400000Y18650000D02*
X947700000Y18650000D01*
X947700000Y18650000D02*
X947700000Y17350000D01*
G36*
X947700000Y17350000D02*
G01*
X946400000Y17350000D01*
X946400000Y18650000D01*
X947700000Y18650000D01*
X947700000Y17350000D01*
G37*
X947700000Y17350000D02*
X946400000Y17350000D01*
X946400000Y18650000D01*
X947700000Y18650000D01*
X947700000Y17350000D01*
X947700000Y15050000D02*
X946400000Y15050000D01*
X946400000Y15050000D02*
X946400000Y16350000D01*
X946400000Y16350000D02*
X947700000Y16350000D01*
X947700000Y16350000D02*
X947700000Y15050000D01*
G36*
X947700000Y15050000D02*
G01*
X946400000Y15050000D01*
X946400000Y16350000D01*
X947700000Y16350000D01*
X947700000Y15050000D01*
G37*
X947700000Y15050000D02*
X946400000Y15050000D01*
X946400000Y16350000D01*
X947700000Y16350000D01*
X947700000Y15050000D01*
X947700000Y19650000D02*
X946400000Y19650000D01*
X946400000Y19650000D02*
X946400000Y20950000D01*
X946400000Y20950000D02*
X947700000Y20950000D01*
X947700000Y20950000D02*
X947700000Y19650000D01*
G36*
X947700000Y19650000D02*
G01*
X946400000Y19650000D01*
X946400000Y20950000D01*
X947700000Y20950000D01*
X947700000Y19650000D01*
G37*
X947700000Y19650000D02*
X946400000Y19650000D01*
X946400000Y20950000D01*
X947700000Y20950000D01*
X947700000Y19650000D01*
X941600000Y16200000D02*
X940300000Y16200000D01*
X940300000Y16200000D02*
X940300000Y19800000D01*
X940300000Y19800000D02*
X941600000Y19800000D01*
X941600000Y19800000D02*
X941600000Y16200000D01*
G36*
X941600000Y16200000D02*
G01*
X940300000Y16200000D01*
X940300000Y19800000D01*
X941600000Y19800000D01*
X941600000Y16200000D01*
G37*
X941600000Y16200000D02*
X940300000Y16200000D01*
X940300000Y19800000D01*
X941600000Y19800000D01*
X941600000Y16200000D01*
%TO.C,U2*%
X162700000Y17350000D02*
X161400000Y17350000D01*
X161400000Y17350000D02*
X161400000Y18650000D01*
X161400000Y18650000D02*
X162700000Y18650000D01*
X162700000Y18650000D02*
X162700000Y17350000D01*
G36*
X162700000Y17350000D02*
G01*
X161400000Y17350000D01*
X161400000Y18650000D01*
X162700000Y18650000D01*
X162700000Y17350000D01*
G37*
X162700000Y17350000D02*
X161400000Y17350000D01*
X161400000Y18650000D01*
X162700000Y18650000D01*
X162700000Y17350000D01*
X162700000Y15050000D02*
X161400000Y15050000D01*
X161400000Y15050000D02*
X161400000Y16350000D01*
X161400000Y16350000D02*
X162700000Y16350000D01*
X162700000Y16350000D02*
X162700000Y15050000D01*
G36*
X162700000Y15050000D02*
G01*
X161400000Y15050000D01*
X161400000Y16350000D01*
X162700000Y16350000D01*
X162700000Y15050000D01*
G37*
X162700000Y15050000D02*
X161400000Y15050000D01*
X161400000Y16350000D01*
X162700000Y16350000D01*
X162700000Y15050000D01*
X162700000Y19650000D02*
X161400000Y19650000D01*
X161400000Y19650000D02*
X161400000Y20950000D01*
X161400000Y20950000D02*
X162700000Y20950000D01*
X162700000Y20950000D02*
X162700000Y19650000D01*
G36*
X162700000Y19650000D02*
G01*
X161400000Y19650000D01*
X161400000Y20950000D01*
X162700000Y20950000D01*
X162700000Y19650000D01*
G37*
X162700000Y19650000D02*
X161400000Y19650000D01*
X161400000Y20950000D01*
X162700000Y20950000D01*
X162700000Y19650000D01*
X156600000Y16200000D02*
X155300000Y16200000D01*
X155300000Y16200000D02*
X155300000Y19800000D01*
X155300000Y19800000D02*
X156600000Y19800000D01*
X156600000Y19800000D02*
X156600000Y16200000D01*
G36*
X156600000Y16200000D02*
G01*
X155300000Y16200000D01*
X155300000Y19800000D01*
X156600000Y19800000D01*
X156600000Y16200000D01*
G37*
X156600000Y16200000D02*
X155300000Y16200000D01*
X155300000Y19800000D01*
X156600000Y19800000D01*
X156600000Y16200000D01*
%TO.C,U8*%
X633700000Y17350000D02*
X632400000Y17350000D01*
X632400000Y17350000D02*
X632400000Y18650000D01*
X632400000Y18650000D02*
X633700000Y18650000D01*
X633700000Y18650000D02*
X633700000Y17350000D01*
G36*
X633700000Y17350000D02*
G01*
X632400000Y17350000D01*
X632400000Y18650000D01*
X633700000Y18650000D01*
X633700000Y17350000D01*
G37*
X633700000Y17350000D02*
X632400000Y17350000D01*
X632400000Y18650000D01*
X633700000Y18650000D01*
X633700000Y17350000D01*
X633700000Y15050000D02*
X632400000Y15050000D01*
X632400000Y15050000D02*
X632400000Y16350000D01*
X632400000Y16350000D02*
X633700000Y16350000D01*
X633700000Y16350000D02*
X633700000Y15050000D01*
G36*
X633700000Y15050000D02*
G01*
X632400000Y15050000D01*
X632400000Y16350000D01*
X633700000Y16350000D01*
X633700000Y15050000D01*
G37*
X633700000Y15050000D02*
X632400000Y15050000D01*
X632400000Y16350000D01*
X633700000Y16350000D01*
X633700000Y15050000D01*
X633700000Y19650000D02*
X632400000Y19650000D01*
X632400000Y19650000D02*
X632400000Y20950000D01*
X632400000Y20950000D02*
X633700000Y20950000D01*
X633700000Y20950000D02*
X633700000Y19650000D01*
G36*
X633700000Y19650000D02*
G01*
X632400000Y19650000D01*
X632400000Y20950000D01*
X633700000Y20950000D01*
X633700000Y19650000D01*
G37*
X633700000Y19650000D02*
X632400000Y19650000D01*
X632400000Y20950000D01*
X633700000Y20950000D01*
X633700000Y19650000D01*
X627600000Y16200000D02*
X626300000Y16200000D01*
X626300000Y16200000D02*
X626300000Y19800000D01*
X626300000Y19800000D02*
X627600000Y19800000D01*
X627600000Y19800000D02*
X627600000Y16200000D01*
G36*
X627600000Y16200000D02*
G01*
X626300000Y16200000D01*
X626300000Y19800000D01*
X627600000Y19800000D01*
X627600000Y16200000D01*
G37*
X627600000Y16200000D02*
X626300000Y16200000D01*
X626300000Y19800000D01*
X627600000Y19800000D01*
X627600000Y16200000D01*
%TO.C,U6*%
X476700000Y17350000D02*
X475400000Y17350000D01*
X475400000Y17350000D02*
X475400000Y18650000D01*
X475400000Y18650000D02*
X476700000Y18650000D01*
X476700000Y18650000D02*
X476700000Y17350000D01*
G36*
X476700000Y17350000D02*
G01*
X475400000Y17350000D01*
X475400000Y18650000D01*
X476700000Y18650000D01*
X476700000Y17350000D01*
G37*
X476700000Y17350000D02*
X475400000Y17350000D01*
X475400000Y18650000D01*
X476700000Y18650000D01*
X476700000Y17350000D01*
X476700000Y15050000D02*
X475400000Y15050000D01*
X475400000Y15050000D02*
X475400000Y16350000D01*
X475400000Y16350000D02*
X476700000Y16350000D01*
X476700000Y16350000D02*
X476700000Y15050000D01*
G36*
X476700000Y15050000D02*
G01*
X475400000Y15050000D01*
X475400000Y16350000D01*
X476700000Y16350000D01*
X476700000Y15050000D01*
G37*
X476700000Y15050000D02*
X475400000Y15050000D01*
X475400000Y16350000D01*
X476700000Y16350000D01*
X476700000Y15050000D01*
X476700000Y19650000D02*
X475400000Y19650000D01*
X475400000Y19650000D02*
X475400000Y20950000D01*
X475400000Y20950000D02*
X476700000Y20950000D01*
X476700000Y20950000D02*
X476700000Y19650000D01*
G36*
X476700000Y19650000D02*
G01*
X475400000Y19650000D01*
X475400000Y20950000D01*
X476700000Y20950000D01*
X476700000Y19650000D01*
G37*
X476700000Y19650000D02*
X475400000Y19650000D01*
X475400000Y20950000D01*
X476700000Y20950000D01*
X476700000Y19650000D01*
X470600000Y16200000D02*
X469300000Y16200000D01*
X469300000Y16200000D02*
X469300000Y19800000D01*
X469300000Y19800000D02*
X470600000Y19800000D01*
X470600000Y19800000D02*
X470600000Y16200000D01*
G36*
X470600000Y16200000D02*
G01*
X469300000Y16200000D01*
X469300000Y19800000D01*
X470600000Y19800000D01*
X470600000Y16200000D01*
G37*
X470600000Y16200000D02*
X469300000Y16200000D01*
X469300000Y19800000D01*
X470600000Y19800000D01*
X470600000Y16200000D01*
%TO.C,U11*%
X947700000Y8350000D02*
X946400000Y8350000D01*
X946400000Y8350000D02*
X946400000Y9650000D01*
X946400000Y9650000D02*
X947700000Y9650000D01*
X947700000Y9650000D02*
X947700000Y8350000D01*
G36*
X947700000Y8350000D02*
G01*
X946400000Y8350000D01*
X946400000Y9650000D01*
X947700000Y9650000D01*
X947700000Y8350000D01*
G37*
X947700000Y8350000D02*
X946400000Y8350000D01*
X946400000Y9650000D01*
X947700000Y9650000D01*
X947700000Y8350000D01*
X947700000Y6050000D02*
X946400000Y6050000D01*
X946400000Y6050000D02*
X946400000Y7350000D01*
X946400000Y7350000D02*
X947700000Y7350000D01*
X947700000Y7350000D02*
X947700000Y6050000D01*
G36*
X947700000Y6050000D02*
G01*
X946400000Y6050000D01*
X946400000Y7350000D01*
X947700000Y7350000D01*
X947700000Y6050000D01*
G37*
X947700000Y6050000D02*
X946400000Y6050000D01*
X946400000Y7350000D01*
X947700000Y7350000D01*
X947700000Y6050000D01*
X947700000Y10650000D02*
X946400000Y10650000D01*
X946400000Y10650000D02*
X946400000Y11950000D01*
X946400000Y11950000D02*
X947700000Y11950000D01*
X947700000Y11950000D02*
X947700000Y10650000D01*
G36*
X947700000Y10650000D02*
G01*
X946400000Y10650000D01*
X946400000Y11950000D01*
X947700000Y11950000D01*
X947700000Y10650000D01*
G37*
X947700000Y10650000D02*
X946400000Y10650000D01*
X946400000Y11950000D01*
X947700000Y11950000D01*
X947700000Y10650000D01*
X941600000Y7200000D02*
X940300000Y7200000D01*
X940300000Y7200000D02*
X940300000Y10800000D01*
X940300000Y10800000D02*
X941600000Y10800000D01*
X941600000Y10800000D02*
X941600000Y7200000D01*
G36*
X941600000Y7200000D02*
G01*
X940300000Y7200000D01*
X940300000Y10800000D01*
X941600000Y10800000D01*
X941600000Y7200000D01*
G37*
X941600000Y7200000D02*
X940300000Y7200000D01*
X940300000Y10800000D01*
X941600000Y10800000D01*
X941600000Y7200000D01*
%TO.C,U5*%
X476700000Y8350000D02*
X475400000Y8350000D01*
X475400000Y8350000D02*
X475400000Y9650000D01*
X475400000Y9650000D02*
X476700000Y9650000D01*
X476700000Y9650000D02*
X476700000Y8350000D01*
G36*
X476700000Y8350000D02*
G01*
X475400000Y8350000D01*
X475400000Y9650000D01*
X476700000Y9650000D01*
X476700000Y8350000D01*
G37*
X476700000Y8350000D02*
X475400000Y8350000D01*
X475400000Y9650000D01*
X476700000Y9650000D01*
X476700000Y8350000D01*
X476700000Y6050000D02*
X475400000Y6050000D01*
X475400000Y6050000D02*
X475400000Y7350000D01*
X475400000Y7350000D02*
X476700000Y7350000D01*
X476700000Y7350000D02*
X476700000Y6050000D01*
G36*
X476700000Y6050000D02*
G01*
X475400000Y6050000D01*
X475400000Y7350000D01*
X476700000Y7350000D01*
X476700000Y6050000D01*
G37*
X476700000Y6050000D02*
X475400000Y6050000D01*
X475400000Y7350000D01*
X476700000Y7350000D01*
X476700000Y6050000D01*
X476700000Y10650000D02*
X475400000Y10650000D01*
X475400000Y10650000D02*
X475400000Y11950000D01*
X475400000Y11950000D02*
X476700000Y11950000D01*
X476700000Y11950000D02*
X476700000Y10650000D01*
G36*
X476700000Y10650000D02*
G01*
X475400000Y10650000D01*
X475400000Y11950000D01*
X476700000Y11950000D01*
X476700000Y10650000D01*
G37*
X476700000Y10650000D02*
X475400000Y10650000D01*
X475400000Y11950000D01*
X476700000Y11950000D01*
X476700000Y10650000D01*
X470600000Y7200000D02*
X469300000Y7200000D01*
X469300000Y7200000D02*
X469300000Y10800000D01*
X469300000Y10800000D02*
X470600000Y10800000D01*
X470600000Y10800000D02*
X470600000Y7200000D01*
G36*
X470600000Y7200000D02*
G01*
X469300000Y7200000D01*
X469300000Y10800000D01*
X470600000Y10800000D01*
X470600000Y7200000D01*
G37*
X470600000Y7200000D02*
X469300000Y7200000D01*
X469300000Y10800000D01*
X470600000Y10800000D01*
X470600000Y7200000D01*
%TD*%
D11*
%TO.C,LED172*%
X288475000Y18000000D03*
D12*
X290000000Y18000000D03*
%TD*%
D11*
%TO.C,LED100*%
X237475000Y18000000D03*
D12*
X239000000Y18000000D03*
%TD*%
D11*
%TO.C,LED34*%
X657475000Y18000000D03*
D12*
X659000000Y18000000D03*
%TD*%
D11*
%TO.C,LED184*%
X296975000Y18000000D03*
D12*
X298500000Y18000000D03*
%TD*%
D11*
%TO.C,LED93*%
X699975000Y9000000D03*
D12*
X701500000Y9000000D03*
%TD*%
D11*
%TO.C,LED30*%
X343475000Y18000000D03*
D12*
X345000000Y18000000D03*
%TD*%
D11*
%TO.C,LED161*%
X436975000Y9000000D03*
D12*
X438500000Y9000000D03*
%TD*%
D11*
%TO.C,LED92*%
X542975000Y18000000D03*
D12*
X544500000Y18000000D03*
%TD*%
D11*
%TO.C,LED26*%
X29475000Y18000000D03*
D12*
X31000000Y18000000D03*
%TD*%
D11*
%TO.C,LED121*%
X97475000Y9000000D03*
D12*
X99000000Y9000000D03*
%TD*%
D11*
%TO.C,LED198*%
X462475000Y18000000D03*
D12*
X464000000Y18000000D03*
%TD*%
D11*
%TO.C,LED132*%
X882475000Y18000000D03*
D12*
X884000000Y18000000D03*
%TD*%
D11*
%TO.C,LED14*%
X20975000Y18000000D03*
D12*
X22500000Y18000000D03*
%TD*%
D11*
%TO.C,LEDe*%
X177975000Y9000000D03*
D12*
X179500000Y9000000D03*
%TD*%
D13*
%TO.C,LED140*%
X579015000Y18000000D03*
D14*
X577015000Y18000000D03*
%TD*%
D11*
%TO.C,LED12*%
X797475000Y18000000D03*
D12*
X799000000Y18000000D03*
%TD*%
D11*
%TO.C,LED163*%
X593975000Y9000000D03*
D12*
X595500000Y9000000D03*
%TD*%
D11*
%TO.C,LED90*%
X385975000Y18000000D03*
D12*
X387500000Y18000000D03*
%TD*%
D13*
%TO.C,LED138*%
X422015000Y18000000D03*
D14*
X420015000Y18000000D03*
%TD*%
D11*
%TO.C,LED9*%
X640475000Y9000000D03*
D12*
X642000000Y9000000D03*
%TD*%
D11*
%TO.C,LED115*%
X559975000Y9000000D03*
D12*
X561500000Y9000000D03*
%TD*%
D11*
%TO.C,LED201*%
X776475000Y9000000D03*
D12*
X778000000Y9000000D03*
%TD*%
D11*
%TO.C,LED27*%
X186475000Y9000000D03*
D12*
X188000000Y9000000D03*
%TD*%
D11*
%TO.C,LED85*%
X71975000Y9000000D03*
D12*
X73500000Y9000000D03*
%TD*%
D11*
%TO.C,LED22*%
X648975000Y18000000D03*
D12*
X650500000Y18000000D03*
%TD*%
D13*
%TO.C,LED135*%
X265015000Y9000000D03*
D14*
X263015000Y9000000D03*
%TD*%
D13*
%TO.C,LED134*%
X108015000Y18000000D03*
D14*
X106015000Y18000000D03*
%TD*%
D13*
%TO.C,LED72*%
X842015000Y18000000D03*
D14*
X840015000Y18000000D03*
%TD*%
D15*
%TO.C,R12*%
X950000000Y16537500D03*
X950000000Y19462500D03*
%TD*%
D11*
%TO.C,LED102*%
X394475000Y18000000D03*
D12*
X396000000Y18000000D03*
%TD*%
D11*
%TO.C,LED176*%
X602475000Y18000000D03*
D12*
X604000000Y18000000D03*
%TD*%
D11*
%TO.C,LED75*%
X220475000Y9000000D03*
D12*
X222000000Y9000000D03*
%TD*%
D11*
%TO.C,LED112*%
X245975000Y18000000D03*
D12*
X247500000Y18000000D03*
%TD*%
D15*
%TO.C,R3*%
X322000000Y7537500D03*
X322000000Y10462500D03*
%TD*%
%TO.C,R2*%
X165000000Y16537500D03*
X165000000Y19462500D03*
%TD*%
D11*
%TO.C,LED51*%
X203475000Y9000000D03*
D12*
X205000000Y9000000D03*
%TD*%
D11*
%TO.C,LED19*%
X491975000Y9000000D03*
D12*
X493500000Y9000000D03*
%TD*%
D11*
%TO.C,LED109*%
X88975000Y9000000D03*
D12*
X90500000Y9000000D03*
%TD*%
D15*
%TO.C,R1*%
X165000000Y7537500D03*
X165000000Y10462500D03*
%TD*%
D11*
%TO.C,LED49*%
X46475000Y9000000D03*
D12*
X48000000Y9000000D03*
%TD*%
D11*
%TO.C,LED114*%
X402975000Y18000000D03*
D12*
X404500000Y18000000D03*
%TD*%
D11*
%TO.C,LED130*%
X725475000Y18000000D03*
D12*
X727000000Y18000000D03*
%TD*%
D11*
%TO.C,LED156*%
X899475000Y18000000D03*
D12*
X901000000Y18000000D03*
%TD*%
D11*
%TO.C,LED84*%
X848475000Y18000000D03*
D12*
X850000000Y18000000D03*
%TD*%
D13*
%TO.C,LED68*%
X528015000Y18000000D03*
D14*
X526015000Y18000000D03*
%TD*%
D15*
%TO.C,R10*%
X793000000Y16537500D03*
X793000000Y19462500D03*
%TD*%
D11*
%TO.C,LED197*%
X462475000Y9000000D03*
D12*
X464000000Y9000000D03*
%TD*%
D16*
%TO.C,J3*%
X4500000Y23500000D03*
%TD*%
D11*
%TO.C,LED55*%
X517475000Y9000000D03*
D12*
X519000000Y9000000D03*
%TD*%
D11*
%TO.C,LED18*%
X334975000Y18000000D03*
D12*
X336500000Y18000000D03*
%TD*%
D11*
%TO.C,LED118*%
X716975000Y18000000D03*
D12*
X718500000Y18000000D03*
%TD*%
D11*
%TO.C,LED56*%
X517475000Y18000000D03*
D12*
X519000000Y18000000D03*
%TD*%
D11*
%TO.C,LED11*%
X797475000Y9000000D03*
D12*
X799000000Y9000000D03*
%TD*%
D11*
%TO.C,LED149*%
X428475000Y9000000D03*
D12*
X430000000Y9000000D03*
%TD*%
D11*
%TO.C,LED3*%
X169475000Y9000000D03*
D12*
X171000000Y9000000D03*
%TD*%
D11*
%TO.C,LED180*%
X916475000Y18000000D03*
D12*
X918000000Y18000000D03*
%TD*%
D11*
%TO.C,LED193*%
X148475000Y9000000D03*
D12*
X150000000Y9000000D03*
%TD*%
D11*
%TO.C,LED129*%
X725475000Y9000000D03*
D12*
X727000000Y9000000D03*
%TD*%
D11*
%TO.C,LED38*%
X37975000Y18000000D03*
D12*
X39500000Y18000000D03*
%TD*%
D11*
%TO.C,LED158*%
X122975000Y18000000D03*
D12*
X124500000Y18000000D03*
%TD*%
D11*
%TO.C,LED123*%
X254475000Y9000000D03*
D12*
X256000000Y9000000D03*
%TD*%
D17*
%TO.C,J2*%
X4500000Y13500000D03*
%TD*%
D11*
%TO.C,LED5*%
X326475000Y9000000D03*
D12*
X328000000Y9000000D03*
%TD*%
D11*
%TO.C,LED171*%
X288475000Y9000000D03*
D12*
X290000000Y9000000D03*
%TD*%
D11*
%TO.C,LED47*%
X822975000Y9000000D03*
D12*
X824500000Y9000000D03*
%TD*%
D11*
%TO.C,LED37*%
X37975000Y9000000D03*
D12*
X39500000Y9000000D03*
%TD*%
D11*
%TO.C,LED202*%
X776475000Y18000000D03*
D12*
X778000000Y18000000D03*
%TD*%
D11*
%TO.C,LED117*%
X716975000Y9000000D03*
D12*
X718500000Y9000000D03*
%TD*%
D11*
%TO.C,LED119*%
X873975000Y9000000D03*
D12*
X875500000Y9000000D03*
%TD*%
D11*
%TO.C,LED43*%
X508975000Y9000000D03*
D12*
X510500000Y9000000D03*
%TD*%
D11*
%TO.C,LED150*%
X428475000Y18000000D03*
D12*
X430000000Y18000000D03*
%TD*%
D11*
%TO.C,LED35*%
X814475000Y9000000D03*
D12*
X816000000Y9000000D03*
%TD*%
D11*
%TO.C,LED165*%
X750975000Y9000000D03*
D12*
X752500000Y9000000D03*
%TD*%
D11*
%TO.C,LED79*%
X534475000Y9000000D03*
D12*
X536000000Y9000000D03*
%TD*%
D11*
%TO.C,LED77*%
X377475000Y9000000D03*
D12*
X379000000Y9000000D03*
%TD*%
D11*
%TO.C,LED39*%
X194975000Y9000000D03*
D12*
X196500000Y9000000D03*
%TD*%
D11*
%TO.C,LED41*%
X351975000Y9000000D03*
D12*
X353500000Y9000000D03*
%TD*%
D11*
%TO.C,LED106*%
X708475000Y18000000D03*
D12*
X710000000Y18000000D03*
%TD*%
D11*
%TO.C,LED2*%
X12475000Y18000000D03*
D12*
X14000000Y18000000D03*
%TD*%
D11*
%TO.C,LED24*%
X805975000Y18000000D03*
D12*
X807500000Y18000000D03*
%TD*%
D11*
%TO.C,LED59*%
X831475000Y9000000D03*
D12*
X833000000Y9000000D03*
%TD*%
D11*
%TO.C,LED32*%
X500475000Y18000000D03*
D12*
X502000000Y18000000D03*
%TD*%
D11*
%TO.C,LED10*%
X640475000Y18000000D03*
D12*
X642000000Y18000000D03*
%TD*%
D11*
%TO.C,LED28*%
X186475000Y18000000D03*
D12*
X188000000Y18000000D03*
%TD*%
D11*
%TO.C,LED186*%
X453975000Y18000000D03*
D12*
X455500000Y18000000D03*
%TD*%
D11*
%TO.C,LED191*%
X924975000Y9000000D03*
D12*
X926500000Y9000000D03*
%TD*%
D11*
%TO.C,LED160*%
X279975000Y18000000D03*
D12*
X281500000Y18000000D03*
%TD*%
D11*
%TO.C,LED147*%
X271475000Y9000000D03*
D12*
X273000000Y9000000D03*
%TD*%
D11*
%TO.C,LED78*%
X377475000Y18000000D03*
D12*
X379000000Y18000000D03*
%TD*%
D13*
%TO.C,LED67*%
X528015000Y9000000D03*
D14*
X526015000Y9000000D03*
%TD*%
D11*
%TO.C,LED104*%
X551475000Y18000000D03*
D12*
X553000000Y18000000D03*
%TD*%
D16*
%TO.C,J6*%
X955500000Y23500000D03*
%TD*%
D15*
%TO.C,R11*%
X950000000Y7537500D03*
X950000000Y10462500D03*
%TD*%
D11*
%TO.C,LED80*%
X534475000Y18000000D03*
D12*
X536000000Y18000000D03*
%TD*%
D11*
%TO.C,LED82*%
X691475000Y18000000D03*
D12*
X693000000Y18000000D03*
%TD*%
D11*
%TO.C,LED21*%
X648975000Y9000000D03*
D12*
X650500000Y9000000D03*
%TD*%
D11*
%TO.C,LED188*%
X610975000Y18000000D03*
D12*
X612500000Y18000000D03*
%TD*%
D11*
%TO.C,LED4*%
X169475000Y18000000D03*
D12*
X171000000Y18000000D03*
%TD*%
D11*
%TO.C,LED120*%
X873975000Y18000000D03*
D12*
X875500000Y18000000D03*
%TD*%
D11*
%TO.C,LED45*%
X665975000Y9000000D03*
D12*
X667500000Y9000000D03*
%TD*%
D11*
%TO.C,LED126*%
X411475000Y18000000D03*
D12*
X413000000Y18000000D03*
%TD*%
D11*
%TO.C,LED153*%
X742475000Y9000000D03*
D12*
X744000000Y9000000D03*
%TD*%
D11*
%TO.C,LED73*%
X63475000Y9000000D03*
D12*
X65000000Y9000000D03*
%TD*%
D11*
%TO.C,LED97*%
X80475000Y9000000D03*
D12*
X82000000Y9000000D03*
%TD*%
D11*
%TO.C,LED48*%
X822975000Y18000000D03*
D12*
X824500000Y18000000D03*
%TD*%
D13*
%TO.C,LED64*%
X214015000Y18000000D03*
D14*
X212015000Y18000000D03*
%TD*%
D11*
%TO.C,LED25*%
X29475000Y9000000D03*
D12*
X31000000Y9000000D03*
%TD*%
D11*
%TO.C,LED203*%
X933475000Y9000000D03*
D12*
X935000000Y9000000D03*
%TD*%
D11*
%TO.C,LED166*%
X750975000Y18000000D03*
D12*
X752500000Y18000000D03*
%TD*%
D11*
%TO.C,LED170*%
X131475000Y18000000D03*
D12*
X133000000Y18000000D03*
%TD*%
D11*
%TO.C,LED116*%
X559975000Y18000000D03*
D12*
X561500000Y18000000D03*
%TD*%
D11*
%TO.C,LED91*%
X542975000Y9000000D03*
D12*
X544500000Y9000000D03*
%TD*%
D11*
%TO.C,LED162*%
X436975000Y18000000D03*
D12*
X438500000Y18000000D03*
%TD*%
D13*
%TO.C,LED71*%
X842015000Y9000000D03*
D14*
X840015000Y9000000D03*
%TD*%
D11*
%TO.C,LED101*%
X394475000Y9000000D03*
D12*
X396000000Y9000000D03*
%TD*%
D11*
%TO.C,LED8*%
X483475000Y18000000D03*
D12*
X485000000Y18000000D03*
%TD*%
D15*
%TO.C,R5*%
X479000000Y7537500D03*
X479000000Y10462500D03*
%TD*%
D13*
%TO.C,LED66*%
X371015000Y18000000D03*
D14*
X369015000Y18000000D03*
%TD*%
D11*
%TO.C,LED178*%
X759475000Y18000000D03*
D12*
X761000000Y18000000D03*
%TD*%
D13*
%TO.C,LED61*%
X57015000Y9000000D03*
D14*
X55015000Y9000000D03*
%TD*%
D16*
%TO.C,J4*%
X955500000Y3500000D03*
%TD*%
D11*
%TO.C,LED164*%
X593975000Y18000000D03*
D12*
X595500000Y18000000D03*
%TD*%
D13*
%TO.C,LED65*%
X371015000Y9000000D03*
D14*
X369015000Y9000000D03*
%TD*%
D11*
%TO.C,LED127*%
X568475000Y9000000D03*
D12*
X570000000Y9000000D03*
%TD*%
D11*
%TO.C,LED17*%
X334975000Y9000000D03*
D12*
X336500000Y9000000D03*
%TD*%
D11*
%TO.C,LED54*%
X360475000Y18000000D03*
D12*
X362000000Y18000000D03*
%TD*%
D11*
%TO.C,LED111*%
X245975000Y9000000D03*
D12*
X247500000Y9000000D03*
%TD*%
D11*
%TO.C,LED42*%
X351975000Y18000000D03*
D12*
X353500000Y18000000D03*
%TD*%
D11*
%TO.C,LED96*%
X856975000Y18000000D03*
D12*
X858500000Y18000000D03*
%TD*%
D13*
%TO.C,LED141*%
X736015000Y9000000D03*
D14*
X734015000Y9000000D03*
%TD*%
D11*
%TO.C,LED159*%
X279975000Y9000000D03*
D12*
X281500000Y9000000D03*
%TD*%
D11*
%TO.C,LED60*%
X831475000Y18000000D03*
D12*
X833000000Y18000000D03*
%TD*%
D11*
%TO.C,LED131*%
X882475000Y9000000D03*
D12*
X884000000Y9000000D03*
%TD*%
D11*
%TO.C,LED23*%
X805975000Y9000000D03*
D12*
X807500000Y9000000D03*
%TD*%
D11*
%TO.C,LED44*%
X508975000Y18000000D03*
D12*
X510500000Y18000000D03*
%TD*%
D11*
%TO.C,LED1*%
X12475000Y9000000D03*
D12*
X14000000Y9000000D03*
%TD*%
D11*
%TO.C,LED187*%
X610975000Y9000000D03*
D12*
X612500000Y9000000D03*
%TD*%
D11*
%TO.C,LED154*%
X742475000Y18000000D03*
D12*
X744000000Y18000000D03*
%TD*%
D11*
%TO.C,LED46*%
X665975000Y18000000D03*
D12*
X667500000Y18000000D03*
%TD*%
D11*
%TO.C,LED168*%
X907975000Y18000000D03*
D12*
X909500000Y18000000D03*
%TD*%
D11*
%TO.C,LED196*%
X305475000Y18000000D03*
D12*
X307000000Y18000000D03*
%TD*%
D11*
%TO.C,LED88*%
X228975000Y18000000D03*
D12*
X230500000Y18000000D03*
%TD*%
D11*
%TO.C,LED31*%
X500475000Y9000000D03*
D12*
X502000000Y9000000D03*
%TD*%
D11*
%TO.C,LED145*%
X114475000Y9000000D03*
D12*
X116000000Y9000000D03*
%TD*%
D11*
%TO.C,LED20*%
X491975000Y18000000D03*
D12*
X493500000Y18000000D03*
%TD*%
D11*
%TO.C,LED122*%
X97475000Y18000000D03*
D12*
X99000000Y18000000D03*
%TD*%
D11*
%TO.C,LED105*%
X708475000Y9000000D03*
D12*
X710000000Y9000000D03*
%TD*%
D15*
%TO.C,R7*%
X636000000Y7537500D03*
X636000000Y10462500D03*
%TD*%
D11*
%TO.C,LED177*%
X759475000Y9000000D03*
D12*
X761000000Y9000000D03*
%TD*%
D11*
%TO.C,LED113*%
X402975000Y9000000D03*
D12*
X404500000Y9000000D03*
%TD*%
D11*
%TO.C,LED53*%
X360475000Y9000000D03*
D12*
X362000000Y9000000D03*
%TD*%
D11*
%TO.C,LED195*%
X305475000Y9000000D03*
D12*
X307000000Y9000000D03*
%TD*%
D11*
%TO.C,LED204*%
X933475000Y18000000D03*
D12*
X935000000Y18000000D03*
%TD*%
D11*
%TO.C,LED175*%
X602475000Y9000000D03*
D12*
X604000000Y9000000D03*
%TD*%
D11*
%TO.C,LED107*%
X865475000Y9000000D03*
D12*
X867000000Y9000000D03*
%TD*%
D11*
%TO.C,LED146*%
X114475000Y18000000D03*
D12*
X116000000Y18000000D03*
%TD*%
D15*
%TO.C,R4*%
X322000000Y16537500D03*
X322000000Y19462500D03*
%TD*%
D13*
%TO.C,LED139*%
X579015000Y9000000D03*
D14*
X577015000Y9000000D03*
%TD*%
D11*
%TO.C,LED124*%
X254475000Y18000000D03*
D12*
X256000000Y18000000D03*
%TD*%
D11*
%TO.C,LED157*%
X122975000Y9000000D03*
D12*
X124500000Y9000000D03*
%TD*%
D13*
%TO.C,LED144*%
X893015000Y18000000D03*
D14*
X891015000Y18000000D03*
%TD*%
D11*
%TO.C,LED108*%
X865475000Y18000000D03*
D12*
X867000000Y18000000D03*
%TD*%
D13*
%TO.C,LED142*%
X736015000Y18000000D03*
D14*
X734015000Y18000000D03*
%TD*%
D11*
%TO.C,LED52*%
X203475000Y18000000D03*
D12*
X205000000Y18000000D03*
%TD*%
D11*
%TO.C,LED6*%
X326475000Y18000000D03*
D12*
X328000000Y18000000D03*
%TD*%
D13*
%TO.C,LED133*%
X108015000Y9000000D03*
D14*
X106015000Y9000000D03*
%TD*%
D11*
%TO.C,LED98*%
X80475000Y18000000D03*
D12*
X82000000Y18000000D03*
%TD*%
D11*
%TO.C,LED182*%
X139975000Y18000000D03*
D12*
X141500000Y18000000D03*
%TD*%
D13*
%TO.C,LED143*%
X893015000Y9000000D03*
D14*
X891015000Y9000000D03*
%TD*%
D11*
%TO.C,LED181*%
X139975000Y9000000D03*
D12*
X141500000Y9000000D03*
%TD*%
D11*
%TO.C,LED95*%
X856975000Y9000000D03*
D12*
X858500000Y9000000D03*
%TD*%
D11*
%TO.C,LED125*%
X411475000Y9000000D03*
D12*
X413000000Y9000000D03*
%TD*%
D11*
%TO.C,LED173*%
X445475000Y9000000D03*
D12*
X447000000Y9000000D03*
%TD*%
D11*
%TO.C,LED183*%
X296975000Y9000000D03*
D12*
X298500000Y9000000D03*
%TD*%
D11*
%TO.C,LED152*%
X585475000Y18000000D03*
D12*
X587000000Y18000000D03*
%TD*%
D11*
%TO.C,LED103*%
X551475000Y9000000D03*
D12*
X553000000Y9000000D03*
%TD*%
D11*
%TO.C,LED128*%
X568475000Y18000000D03*
D12*
X570000000Y18000000D03*
%TD*%
D11*
%TO.C,LED83*%
X848475000Y9000000D03*
D12*
X850000000Y9000000D03*
%TD*%
D13*
%TO.C,LED136*%
X265015000Y18000000D03*
D14*
X263015000Y18000000D03*
%TD*%
D13*
%TO.C,LED137*%
X422015000Y9000000D03*
D14*
X420015000Y9000000D03*
%TD*%
D11*
%TO.C,LED76*%
X220475000Y18000000D03*
D12*
X222000000Y18000000D03*
%TD*%
D13*
%TO.C,LED63*%
X214015000Y9000000D03*
D14*
X212015000Y9000000D03*
%TD*%
D11*
%TO.C,LED110*%
X88975000Y18000000D03*
D12*
X90500000Y18000000D03*
%TD*%
D11*
%TO.C,LED155*%
X899475000Y9000000D03*
D12*
X901000000Y9000000D03*
%TD*%
D11*
%TO.C,LED58*%
X674475000Y18000000D03*
D12*
X676000000Y18000000D03*
%TD*%
D13*
%TO.C,LED70*%
X685015000Y18000000D03*
D14*
X683015000Y18000000D03*
%TD*%
D11*
%TO.C,LED74*%
X63475000Y18000000D03*
D12*
X65000000Y18000000D03*
%TD*%
D11*
%TO.C,LED148*%
X271475000Y18000000D03*
D12*
X273000000Y18000000D03*
%TD*%
D11*
%TO.C,LED169*%
X131475000Y9000000D03*
D12*
X133000000Y9000000D03*
%TD*%
D17*
%TO.C,J5*%
X955500000Y13500000D03*
%TD*%
D11*
%TO.C,LED87*%
X228975000Y9000000D03*
D12*
X230500000Y9000000D03*
%TD*%
D11*
%TO.C,LED199*%
X619475000Y9000000D03*
D12*
X621000000Y9000000D03*
%TD*%
D15*
%TO.C,R6*%
X479000000Y16537500D03*
X479000000Y19462500D03*
%TD*%
D11*
%TO.C,LED200*%
X619475000Y18000000D03*
D12*
X621000000Y18000000D03*
%TD*%
D11*
%TO.C,LED16*%
X177975000Y18000000D03*
D12*
X179500000Y18000000D03*
%TD*%
D11*
%TO.C,LED185*%
X453975000Y9000000D03*
D12*
X455500000Y9000000D03*
%TD*%
D11*
%TO.C,LED57*%
X674475000Y9000000D03*
D12*
X676000000Y9000000D03*
%TD*%
D11*
%TO.C,LED13*%
X20975000Y9000000D03*
D12*
X22500000Y9000000D03*
%TD*%
D11*
%TO.C,LED99*%
X237475000Y9000000D03*
D12*
X239000000Y9000000D03*
%TD*%
D11*
%TO.C,LED7*%
X483475000Y9000000D03*
D12*
X485000000Y9000000D03*
%TD*%
D15*
%TO.C,R8*%
X636000000Y16537500D03*
X636000000Y19462500D03*
%TD*%
D11*
%TO.C,LED40*%
X194975000Y18000000D03*
D12*
X196500000Y18000000D03*
%TD*%
D11*
%TO.C,LED89*%
X385975000Y9000000D03*
D12*
X387500000Y9000000D03*
%TD*%
D11*
%TO.C,LED33*%
X657475000Y9000000D03*
D12*
X659000000Y9000000D03*
%TD*%
D11*
%TO.C,LED192*%
X924975000Y18000000D03*
D12*
X926500000Y18000000D03*
%TD*%
D11*
%TO.C,LED36*%
X814475000Y18000000D03*
D12*
X816000000Y18000000D03*
%TD*%
D11*
%TO.C,LED81*%
X691475000Y9000000D03*
D12*
X693000000Y9000000D03*
%TD*%
D11*
%TO.C,LED94*%
X699975000Y18000000D03*
D12*
X701500000Y18000000D03*
%TD*%
D13*
%TO.C,LED62*%
X57015000Y18000000D03*
D14*
X55015000Y18000000D03*
%TD*%
D11*
%TO.C,LED151*%
X585475000Y9000000D03*
D12*
X587000000Y9000000D03*
%TD*%
D11*
%TO.C,LED29*%
X343475000Y9000000D03*
D12*
X345000000Y9000000D03*
%TD*%
D11*
%TO.C,LED190*%
X767975000Y18000000D03*
D12*
X769500000Y18000000D03*
%TD*%
D16*
%TO.C,J1*%
X4500000Y3500000D03*
%TD*%
D11*
%TO.C,LED50*%
X46475000Y18000000D03*
D12*
X48000000Y18000000D03*
%TD*%
D11*
%TO.C,LED189*%
X767975000Y9000000D03*
D12*
X769500000Y9000000D03*
%TD*%
D11*
%TO.C,LED179*%
X916475000Y9000000D03*
D12*
X918000000Y9000000D03*
%TD*%
D11*
%TO.C,LED167*%
X907975000Y9000000D03*
D12*
X909500000Y9000000D03*
%TD*%
D11*
%TO.C,LED86*%
X71975000Y18000000D03*
D12*
X73500000Y18000000D03*
%TD*%
D11*
%TO.C,LED174*%
X445475000Y18000000D03*
D12*
X447000000Y18000000D03*
%TD*%
D15*
%TO.C,R9*%
X793000000Y7537500D03*
X793000000Y10462500D03*
%TD*%
D11*
%TO.C,LED194*%
X148475000Y18000000D03*
D12*
X150000000Y18000000D03*
%TD*%
D13*
%TO.C,LED69*%
X685015000Y9000000D03*
D14*
X683015000Y9000000D03*
%TD*%
M02*
