%TF.GenerationSoftware,KiCad,Pcbnew,(7.0.0)*%
%TF.CreationDate,2023-06-14T19:32:07+03:00*%
%TF.ProjectId,LED PCB,4c454420-5043-4422-9e6b-696361645f70,rev?*%
%TF.SameCoordinates,PX660b0c0PY5f767a0*%
%TF.FileFunction,Drillmap*%
%TF.FilePolarity,Positive*%
%FSLAX45Y45*%
G04 Gerber Fmt 4.5, Leading zero omitted, Abs format (unit mm)*
G04 Created by KiCad (PCBNEW (7.0.0)) date 2023-06-14 19:32:07*
%MOMM*%
%LPD*%
G01*
G04 APERTURE LIST*
%ADD10C,0.100000*%
%ADD11C,0.200000*%
G04 APERTURE END LIST*
D10*
X98040000Y2710000D02*
X0Y2700000D01*
X98040000Y10000D02*
X98040000Y2710000D01*
X0Y0D02*
X98040000Y0D01*
X95300000Y2710000D02*
X0Y2700000D01*
X0Y0D02*
X0Y2700000D01*
X98040000Y0D02*
X98040000Y2700000D01*
D11*
X242619Y-298476D02*
X242619Y-98476D01*
X242619Y-98476D02*
X290238Y-98476D01*
X290238Y-98476D02*
X318810Y-108000D01*
X318810Y-108000D02*
X337857Y-127048D01*
X337857Y-127048D02*
X347381Y-146095D01*
X347381Y-146095D02*
X356905Y-184190D01*
X356905Y-184190D02*
X356905Y-212762D01*
X356905Y-212762D02*
X347381Y-250857D01*
X347381Y-250857D02*
X337857Y-269905D01*
X337857Y-269905D02*
X318810Y-288952D01*
X318810Y-288952D02*
X290238Y-298476D01*
X290238Y-298476D02*
X242619Y-298476D01*
X442619Y-298476D02*
X442619Y-165143D01*
X442619Y-203238D02*
X452143Y-184190D01*
X452143Y-184190D02*
X461667Y-174667D01*
X461667Y-174667D02*
X480714Y-165143D01*
X480714Y-165143D02*
X499762Y-165143D01*
X566429Y-298476D02*
X566429Y-165143D01*
X566429Y-98476D02*
X556905Y-108000D01*
X556905Y-108000D02*
X566429Y-117524D01*
X566429Y-117524D02*
X575952Y-108000D01*
X575952Y-108000D02*
X566429Y-98476D01*
X566429Y-98476D02*
X566429Y-117524D01*
X690238Y-298476D02*
X671190Y-288952D01*
X671190Y-288952D02*
X661667Y-269905D01*
X661667Y-269905D02*
X661667Y-98476D01*
X795000Y-298476D02*
X775952Y-288952D01*
X775952Y-288952D02*
X766428Y-269905D01*
X766428Y-269905D02*
X766428Y-98476D01*
X991190Y-298476D02*
X991190Y-98476D01*
X991190Y-98476D02*
X1057857Y-241333D01*
X1057857Y-241333D02*
X1124524Y-98476D01*
X1124524Y-98476D02*
X1124524Y-298476D01*
X1305476Y-298476D02*
X1305476Y-193714D01*
X1305476Y-193714D02*
X1295952Y-174667D01*
X1295952Y-174667D02*
X1276905Y-165143D01*
X1276905Y-165143D02*
X1238809Y-165143D01*
X1238809Y-165143D02*
X1219762Y-174667D01*
X1305476Y-288952D02*
X1286429Y-298476D01*
X1286429Y-298476D02*
X1238809Y-298476D01*
X1238809Y-298476D02*
X1219762Y-288952D01*
X1219762Y-288952D02*
X1210238Y-269905D01*
X1210238Y-269905D02*
X1210238Y-250857D01*
X1210238Y-250857D02*
X1219762Y-231809D01*
X1219762Y-231809D02*
X1238809Y-222286D01*
X1238809Y-222286D02*
X1286429Y-222286D01*
X1286429Y-222286D02*
X1305476Y-212762D01*
X1400714Y-165143D02*
X1400714Y-365143D01*
X1400714Y-174667D02*
X1419762Y-165143D01*
X1419762Y-165143D02*
X1457857Y-165143D01*
X1457857Y-165143D02*
X1476905Y-174667D01*
X1476905Y-174667D02*
X1486428Y-184190D01*
X1486428Y-184190D02*
X1495952Y-203238D01*
X1495952Y-203238D02*
X1495952Y-260381D01*
X1495952Y-260381D02*
X1486428Y-279429D01*
X1486428Y-279429D02*
X1476905Y-288952D01*
X1476905Y-288952D02*
X1457857Y-298476D01*
X1457857Y-298476D02*
X1419762Y-298476D01*
X1419762Y-298476D02*
X1400714Y-288952D01*
X1581667Y-279429D02*
X1591190Y-288952D01*
X1591190Y-288952D02*
X1581667Y-298476D01*
X1581667Y-298476D02*
X1572143Y-288952D01*
X1572143Y-288952D02*
X1581667Y-279429D01*
X1581667Y-279429D02*
X1581667Y-298476D01*
X1581667Y-174667D02*
X1591190Y-184190D01*
X1591190Y-184190D02*
X1581667Y-193714D01*
X1581667Y-193714D02*
X1572143Y-184190D01*
X1572143Y-184190D02*
X1581667Y-174667D01*
X1581667Y-174667D02*
X1581667Y-193714D01*
M02*
