%TF.GenerationSoftware,KiCad,Pcbnew,(7.0.0)*%
%TF.CreationDate,2023-06-14T19:32:12+03:00*%
%TF.ProjectId,LED PCB,4c454420-5043-4422-9e6b-696361645f70,rev?*%
%TF.SameCoordinates,PX660b0c0PY5f767a0*%
%TF.FileFunction,Paste,Top*%
%TF.FilePolarity,Positive*%
%FSLAX46Y46*%
G04 Gerber Fmt 4.6, Leading zero omitted, Abs format (unit mm)*
G04 Created by KiCad (PCBNEW (7.0.0)) date 2023-06-14 19:32:12*
%MOMM*%
%LPD*%
G01*
G04 APERTURE LIST*
G04 Aperture macros list*
%AMRoundRect*
0 Rectangle with rounded corners*
0 $1 Rounding radius*
0 $2 $3 $4 $5 $6 $7 $8 $9 X,Y pos of 4 corners*
0 Add a 4 corners polygon primitive as box body*
4,1,4,$2,$3,$4,$5,$6,$7,$8,$9,$2,$3,0*
0 Add four circle primitives for the rounded corners*
1,1,$1+$1,$2,$3*
1,1,$1+$1,$4,$5*
1,1,$1+$1,$6,$7*
1,1,$1+$1,$8,$9*
0 Add four rect primitives between the rounded corners*
20,1,$1+$1,$2,$3,$4,$5,0*
20,1,$1+$1,$4,$5,$6,$7,0*
20,1,$1+$1,$6,$7,$8,$9,0*
20,1,$1+$1,$8,$9,$2,$3,0*%
%AMFreePoly0*
4,1,21,1.792426,0.667426,1.810000,0.625000,1.810000,0.125000,1.792426,0.082574,1.750000,0.065000,1.460000,0.065000,1.460000,-0.625000,1.442426,-0.667426,1.400000,-0.685000,-1.400000,-0.685000,-1.442426,-0.667426,-1.460000,-0.625000,-1.460000,0.065000,-1.750000,0.065000,-1.792426,0.082574,-1.810000,0.125000,-1.810000,0.625000,-1.792426,0.667426,-1.750000,0.685000,1.750000,0.685000,
1.792426,0.667426,1.792426,0.667426,$1*%
G04 Aperture macros list end*
%ADD10C,0.010000*%
%ADD11FreePoly0,90.000000*%
%ADD12FreePoly0,270.000000*%
%ADD13R,0.970000X1.840000*%
%ADD14R,2.030000X1.840000*%
%ADD15RoundRect,0.250000X0.625000X-0.312500X0.625000X0.312500X-0.625000X0.312500X-0.625000X-0.312500X0*%
%ADD16RoundRect,1.500000X-2.500000X-1.500000X2.500000X-1.500000X2.500000X1.500000X-2.500000X1.500000X0*%
%ADD17RoundRect,1.000000X-3.000000X-1.000000X3.000000X-1.000000X3.000000X1.000000X-3.000000X1.000000X0*%
G04 APERTURE END LIST*
%TO.C,U3*%
G36*
X328500000Y6700000D02*
G01*
X327300000Y6700000D01*
X327300000Y7900000D01*
X328500000Y7900000D01*
X328500000Y6700000D01*
G37*
D10*
X328500000Y6700000D02*
X327300000Y6700000D01*
X327300000Y7900000D01*
X328500000Y7900000D01*
X328500000Y6700000D01*
G36*
X328500000Y9000000D02*
G01*
X327300000Y9000000D01*
X327300000Y10200000D01*
X328500000Y10200000D01*
X328500000Y9000000D01*
G37*
X328500000Y9000000D02*
X327300000Y9000000D01*
X327300000Y10200000D01*
X328500000Y10200000D01*
X328500000Y9000000D01*
G36*
X328500000Y11300000D02*
G01*
X327300000Y11300000D01*
X327300000Y12500000D01*
X328500000Y12500000D01*
X328500000Y11300000D01*
G37*
X328500000Y11300000D02*
X327300000Y11300000D01*
X327300000Y12500000D01*
X328500000Y12500000D01*
X328500000Y11300000D01*
G36*
X322400000Y7850000D02*
G01*
X321200000Y7850000D01*
X321200000Y9450000D01*
X322400000Y9450000D01*
X322400000Y7850000D01*
G37*
X322400000Y7850000D02*
X321200000Y7850000D01*
X321200000Y9450000D01*
X322400000Y9450000D01*
X322400000Y7850000D01*
G36*
X322400000Y9750000D02*
G01*
X321200000Y9750000D01*
X321200000Y11350000D01*
X322400000Y11350000D01*
X322400000Y9750000D01*
G37*
X322400000Y9750000D02*
X321200000Y9750000D01*
X321200000Y11350000D01*
X322400000Y11350000D01*
X322400000Y9750000D01*
%TO.C,U1*%
G36*
X168800000Y6700000D02*
G01*
X167600000Y6700000D01*
X167600000Y7900000D01*
X168800000Y7900000D01*
X168800000Y6700000D01*
G37*
X168800000Y6700000D02*
X167600000Y6700000D01*
X167600000Y7900000D01*
X168800000Y7900000D01*
X168800000Y6700000D01*
G36*
X168800000Y9000000D02*
G01*
X167600000Y9000000D01*
X167600000Y10200000D01*
X168800000Y10200000D01*
X168800000Y9000000D01*
G37*
X168800000Y9000000D02*
X167600000Y9000000D01*
X167600000Y10200000D01*
X168800000Y10200000D01*
X168800000Y9000000D01*
G36*
X168800000Y11300000D02*
G01*
X167600000Y11300000D01*
X167600000Y12500000D01*
X168800000Y12500000D01*
X168800000Y11300000D01*
G37*
X168800000Y11300000D02*
X167600000Y11300000D01*
X167600000Y12500000D01*
X168800000Y12500000D01*
X168800000Y11300000D01*
G36*
X162700000Y7850000D02*
G01*
X161500000Y7850000D01*
X161500000Y9450000D01*
X162700000Y9450000D01*
X162700000Y7850000D01*
G37*
X162700000Y7850000D02*
X161500000Y7850000D01*
X161500000Y9450000D01*
X162700000Y9450000D01*
X162700000Y7850000D01*
G36*
X162700000Y9750000D02*
G01*
X161500000Y9750000D01*
X161500000Y11350000D01*
X162700000Y11350000D01*
X162700000Y9750000D01*
G37*
X162700000Y9750000D02*
X161500000Y9750000D01*
X161500000Y11350000D01*
X162700000Y11350000D01*
X162700000Y9750000D01*
%TO.C,U9*%
G36*
X808300000Y6800000D02*
G01*
X807100000Y6800000D01*
X807100000Y8000000D01*
X808300000Y8000000D01*
X808300000Y6800000D01*
G37*
X808300000Y6800000D02*
X807100000Y6800000D01*
X807100000Y8000000D01*
X808300000Y8000000D01*
X808300000Y6800000D01*
G36*
X808300000Y9100000D02*
G01*
X807100000Y9100000D01*
X807100000Y10300000D01*
X808300000Y10300000D01*
X808300000Y9100000D01*
G37*
X808300000Y9100000D02*
X807100000Y9100000D01*
X807100000Y10300000D01*
X808300000Y10300000D01*
X808300000Y9100000D01*
G36*
X808300000Y11400000D02*
G01*
X807100000Y11400000D01*
X807100000Y12600000D01*
X808300000Y12600000D01*
X808300000Y11400000D01*
G37*
X808300000Y11400000D02*
X807100000Y11400000D01*
X807100000Y12600000D01*
X808300000Y12600000D01*
X808300000Y11400000D01*
G36*
X802200000Y7950000D02*
G01*
X801000000Y7950000D01*
X801000000Y9550000D01*
X802200000Y9550000D01*
X802200000Y7950000D01*
G37*
X802200000Y7950000D02*
X801000000Y7950000D01*
X801000000Y9550000D01*
X802200000Y9550000D01*
X802200000Y7950000D01*
G36*
X802200000Y9850000D02*
G01*
X801000000Y9850000D01*
X801000000Y11450000D01*
X802200000Y11450000D01*
X802200000Y9850000D01*
G37*
X802200000Y9850000D02*
X801000000Y9850000D01*
X801000000Y11450000D01*
X802200000Y11450000D01*
X802200000Y9850000D01*
%TO.C,U7*%
G36*
X648500000Y6700000D02*
G01*
X647300000Y6700000D01*
X647300000Y7900000D01*
X648500000Y7900000D01*
X648500000Y6700000D01*
G37*
X648500000Y6700000D02*
X647300000Y6700000D01*
X647300000Y7900000D01*
X648500000Y7900000D01*
X648500000Y6700000D01*
G36*
X648500000Y9000000D02*
G01*
X647300000Y9000000D01*
X647300000Y10200000D01*
X648500000Y10200000D01*
X648500000Y9000000D01*
G37*
X648500000Y9000000D02*
X647300000Y9000000D01*
X647300000Y10200000D01*
X648500000Y10200000D01*
X648500000Y9000000D01*
G36*
X648500000Y11300000D02*
G01*
X647300000Y11300000D01*
X647300000Y12500000D01*
X648500000Y12500000D01*
X648500000Y11300000D01*
G37*
X648500000Y11300000D02*
X647300000Y11300000D01*
X647300000Y12500000D01*
X648500000Y12500000D01*
X648500000Y11300000D01*
G36*
X642400000Y7850000D02*
G01*
X641200000Y7850000D01*
X641200000Y9450000D01*
X642400000Y9450000D01*
X642400000Y7850000D01*
G37*
X642400000Y7850000D02*
X641200000Y7850000D01*
X641200000Y9450000D01*
X642400000Y9450000D01*
X642400000Y7850000D01*
G36*
X642400000Y9750000D02*
G01*
X641200000Y9750000D01*
X641200000Y11350000D01*
X642400000Y11350000D01*
X642400000Y9750000D01*
G37*
X642400000Y9750000D02*
X641200000Y9750000D01*
X641200000Y11350000D01*
X642400000Y11350000D01*
X642400000Y9750000D01*
%TO.C,U10*%
G36*
X808300000Y14800000D02*
G01*
X807100000Y14800000D01*
X807100000Y16000000D01*
X808300000Y16000000D01*
X808300000Y14800000D01*
G37*
X808300000Y14800000D02*
X807100000Y14800000D01*
X807100000Y16000000D01*
X808300000Y16000000D01*
X808300000Y14800000D01*
G36*
X808300000Y17100000D02*
G01*
X807100000Y17100000D01*
X807100000Y18300000D01*
X808300000Y18300000D01*
X808300000Y17100000D01*
G37*
X808300000Y17100000D02*
X807100000Y17100000D01*
X807100000Y18300000D01*
X808300000Y18300000D01*
X808300000Y17100000D01*
G36*
X808300000Y19400000D02*
G01*
X807100000Y19400000D01*
X807100000Y20600000D01*
X808300000Y20600000D01*
X808300000Y19400000D01*
G37*
X808300000Y19400000D02*
X807100000Y19400000D01*
X807100000Y20600000D01*
X808300000Y20600000D01*
X808300000Y19400000D01*
G36*
X802200000Y15950000D02*
G01*
X801000000Y15950000D01*
X801000000Y17550000D01*
X802200000Y17550000D01*
X802200000Y15950000D01*
G37*
X802200000Y15950000D02*
X801000000Y15950000D01*
X801000000Y17550000D01*
X802200000Y17550000D01*
X802200000Y15950000D01*
G36*
X802200000Y17850000D02*
G01*
X801000000Y17850000D01*
X801000000Y19450000D01*
X802200000Y19450000D01*
X802200000Y17850000D01*
G37*
X802200000Y17850000D02*
X801000000Y17850000D01*
X801000000Y19450000D01*
X802200000Y19450000D01*
X802200000Y17850000D01*
%TO.C,U4*%
G36*
X328500000Y14700000D02*
G01*
X327300000Y14700000D01*
X327300000Y15900000D01*
X328500000Y15900000D01*
X328500000Y14700000D01*
G37*
X328500000Y14700000D02*
X327300000Y14700000D01*
X327300000Y15900000D01*
X328500000Y15900000D01*
X328500000Y14700000D01*
G36*
X328500000Y17000000D02*
G01*
X327300000Y17000000D01*
X327300000Y18200000D01*
X328500000Y18200000D01*
X328500000Y17000000D01*
G37*
X328500000Y17000000D02*
X327300000Y17000000D01*
X327300000Y18200000D01*
X328500000Y18200000D01*
X328500000Y17000000D01*
G36*
X328500000Y19300000D02*
G01*
X327300000Y19300000D01*
X327300000Y20500000D01*
X328500000Y20500000D01*
X328500000Y19300000D01*
G37*
X328500000Y19300000D02*
X327300000Y19300000D01*
X327300000Y20500000D01*
X328500000Y20500000D01*
X328500000Y19300000D01*
G36*
X322400000Y15850000D02*
G01*
X321200000Y15850000D01*
X321200000Y17450000D01*
X322400000Y17450000D01*
X322400000Y15850000D01*
G37*
X322400000Y15850000D02*
X321200000Y15850000D01*
X321200000Y17450000D01*
X322400000Y17450000D01*
X322400000Y15850000D01*
G36*
X322400000Y17750000D02*
G01*
X321200000Y17750000D01*
X321200000Y19350000D01*
X322400000Y19350000D01*
X322400000Y17750000D01*
G37*
X322400000Y17750000D02*
X321200000Y17750000D01*
X321200000Y19350000D01*
X322400000Y19350000D01*
X322400000Y17750000D01*
%TO.C,U12*%
G36*
X967950000Y14875000D02*
G01*
X966750000Y14875000D01*
X966750000Y16075000D01*
X967950000Y16075000D01*
X967950000Y14875000D01*
G37*
X967950000Y14875000D02*
X966750000Y14875000D01*
X966750000Y16075000D01*
X967950000Y16075000D01*
X967950000Y14875000D01*
G36*
X967950000Y17175000D02*
G01*
X966750000Y17175000D01*
X966750000Y18375000D01*
X967950000Y18375000D01*
X967950000Y17175000D01*
G37*
X967950000Y17175000D02*
X966750000Y17175000D01*
X966750000Y18375000D01*
X967950000Y18375000D01*
X967950000Y17175000D01*
G36*
X967950000Y19475000D02*
G01*
X966750000Y19475000D01*
X966750000Y20675000D01*
X967950000Y20675000D01*
X967950000Y19475000D01*
G37*
X967950000Y19475000D02*
X966750000Y19475000D01*
X966750000Y20675000D01*
X967950000Y20675000D01*
X967950000Y19475000D01*
G36*
X961850000Y16025000D02*
G01*
X960650000Y16025000D01*
X960650000Y17625000D01*
X961850000Y17625000D01*
X961850000Y16025000D01*
G37*
X961850000Y16025000D02*
X960650000Y16025000D01*
X960650000Y17625000D01*
X961850000Y17625000D01*
X961850000Y16025000D01*
G36*
X961850000Y17925000D02*
G01*
X960650000Y17925000D01*
X960650000Y19525000D01*
X961850000Y19525000D01*
X961850000Y17925000D01*
G37*
X961850000Y17925000D02*
X960650000Y17925000D01*
X960650000Y19525000D01*
X961850000Y19525000D01*
X961850000Y17925000D01*
%TO.C,U2*%
G36*
X168800000Y14700000D02*
G01*
X167600000Y14700000D01*
X167600000Y15900000D01*
X168800000Y15900000D01*
X168800000Y14700000D01*
G37*
X168800000Y14700000D02*
X167600000Y14700000D01*
X167600000Y15900000D01*
X168800000Y15900000D01*
X168800000Y14700000D01*
G36*
X168800000Y17000000D02*
G01*
X167600000Y17000000D01*
X167600000Y18200000D01*
X168800000Y18200000D01*
X168800000Y17000000D01*
G37*
X168800000Y17000000D02*
X167600000Y17000000D01*
X167600000Y18200000D01*
X168800000Y18200000D01*
X168800000Y17000000D01*
G36*
X168800000Y19300000D02*
G01*
X167600000Y19300000D01*
X167600000Y20500000D01*
X168800000Y20500000D01*
X168800000Y19300000D01*
G37*
X168800000Y19300000D02*
X167600000Y19300000D01*
X167600000Y20500000D01*
X168800000Y20500000D01*
X168800000Y19300000D01*
G36*
X162700000Y15850000D02*
G01*
X161500000Y15850000D01*
X161500000Y17450000D01*
X162700000Y17450000D01*
X162700000Y15850000D01*
G37*
X162700000Y15850000D02*
X161500000Y15850000D01*
X161500000Y17450000D01*
X162700000Y17450000D01*
X162700000Y15850000D01*
G36*
X162700000Y17750000D02*
G01*
X161500000Y17750000D01*
X161500000Y19350000D01*
X162700000Y19350000D01*
X162700000Y17750000D01*
G37*
X162700000Y17750000D02*
X161500000Y17750000D01*
X161500000Y19350000D01*
X162700000Y19350000D01*
X162700000Y17750000D01*
%TO.C,U8*%
G36*
X648500000Y14700000D02*
G01*
X647300000Y14700000D01*
X647300000Y15900000D01*
X648500000Y15900000D01*
X648500000Y14700000D01*
G37*
X648500000Y14700000D02*
X647300000Y14700000D01*
X647300000Y15900000D01*
X648500000Y15900000D01*
X648500000Y14700000D01*
G36*
X648500000Y17000000D02*
G01*
X647300000Y17000000D01*
X647300000Y18200000D01*
X648500000Y18200000D01*
X648500000Y17000000D01*
G37*
X648500000Y17000000D02*
X647300000Y17000000D01*
X647300000Y18200000D01*
X648500000Y18200000D01*
X648500000Y17000000D01*
G36*
X648500000Y19300000D02*
G01*
X647300000Y19300000D01*
X647300000Y20500000D01*
X648500000Y20500000D01*
X648500000Y19300000D01*
G37*
X648500000Y19300000D02*
X647300000Y19300000D01*
X647300000Y20500000D01*
X648500000Y20500000D01*
X648500000Y19300000D01*
G36*
X642400000Y15850000D02*
G01*
X641200000Y15850000D01*
X641200000Y17450000D01*
X642400000Y17450000D01*
X642400000Y15850000D01*
G37*
X642400000Y15850000D02*
X641200000Y15850000D01*
X641200000Y17450000D01*
X642400000Y17450000D01*
X642400000Y15850000D01*
G36*
X642400000Y17750000D02*
G01*
X641200000Y17750000D01*
X641200000Y19350000D01*
X642400000Y19350000D01*
X642400000Y17750000D01*
G37*
X642400000Y17750000D02*
X641200000Y17750000D01*
X641200000Y19350000D01*
X642400000Y19350000D01*
X642400000Y17750000D01*
%TO.C,U6*%
G36*
X488500000Y14700000D02*
G01*
X487300000Y14700000D01*
X487300000Y15900000D01*
X488500000Y15900000D01*
X488500000Y14700000D01*
G37*
X488500000Y14700000D02*
X487300000Y14700000D01*
X487300000Y15900000D01*
X488500000Y15900000D01*
X488500000Y14700000D01*
G36*
X488500000Y17000000D02*
G01*
X487300000Y17000000D01*
X487300000Y18200000D01*
X488500000Y18200000D01*
X488500000Y17000000D01*
G37*
X488500000Y17000000D02*
X487300000Y17000000D01*
X487300000Y18200000D01*
X488500000Y18200000D01*
X488500000Y17000000D01*
G36*
X488500000Y19300000D02*
G01*
X487300000Y19300000D01*
X487300000Y20500000D01*
X488500000Y20500000D01*
X488500000Y19300000D01*
G37*
X488500000Y19300000D02*
X487300000Y19300000D01*
X487300000Y20500000D01*
X488500000Y20500000D01*
X488500000Y19300000D01*
G36*
X482400000Y15850000D02*
G01*
X481200000Y15850000D01*
X481200000Y17450000D01*
X482400000Y17450000D01*
X482400000Y15850000D01*
G37*
X482400000Y15850000D02*
X481200000Y15850000D01*
X481200000Y17450000D01*
X482400000Y17450000D01*
X482400000Y15850000D01*
G36*
X482400000Y17750000D02*
G01*
X481200000Y17750000D01*
X481200000Y19350000D01*
X482400000Y19350000D01*
X482400000Y17750000D01*
G37*
X482400000Y17750000D02*
X481200000Y17750000D01*
X481200000Y19350000D01*
X482400000Y19350000D01*
X482400000Y17750000D01*
%TO.C,U11*%
G36*
X967950000Y6875000D02*
G01*
X966750000Y6875000D01*
X966750000Y8075000D01*
X967950000Y8075000D01*
X967950000Y6875000D01*
G37*
X967950000Y6875000D02*
X966750000Y6875000D01*
X966750000Y8075000D01*
X967950000Y8075000D01*
X967950000Y6875000D01*
G36*
X967950000Y9175000D02*
G01*
X966750000Y9175000D01*
X966750000Y10375000D01*
X967950000Y10375000D01*
X967950000Y9175000D01*
G37*
X967950000Y9175000D02*
X966750000Y9175000D01*
X966750000Y10375000D01*
X967950000Y10375000D01*
X967950000Y9175000D01*
G36*
X967950000Y11475000D02*
G01*
X966750000Y11475000D01*
X966750000Y12675000D01*
X967950000Y12675000D01*
X967950000Y11475000D01*
G37*
X967950000Y11475000D02*
X966750000Y11475000D01*
X966750000Y12675000D01*
X967950000Y12675000D01*
X967950000Y11475000D01*
G36*
X961850000Y8025000D02*
G01*
X960650000Y8025000D01*
X960650000Y9625000D01*
X961850000Y9625000D01*
X961850000Y8025000D01*
G37*
X961850000Y8025000D02*
X960650000Y8025000D01*
X960650000Y9625000D01*
X961850000Y9625000D01*
X961850000Y8025000D01*
G36*
X961850000Y9925000D02*
G01*
X960650000Y9925000D01*
X960650000Y11525000D01*
X961850000Y11525000D01*
X961850000Y9925000D01*
G37*
X961850000Y9925000D02*
X960650000Y9925000D01*
X960650000Y11525000D01*
X961850000Y11525000D01*
X961850000Y9925000D01*
%TO.C,U5*%
G36*
X488500000Y6750000D02*
G01*
X487300000Y6750000D01*
X487300000Y7950000D01*
X488500000Y7950000D01*
X488500000Y6750000D01*
G37*
X488500000Y6750000D02*
X487300000Y6750000D01*
X487300000Y7950000D01*
X488500000Y7950000D01*
X488500000Y6750000D01*
G36*
X488500000Y9050000D02*
G01*
X487300000Y9050000D01*
X487300000Y10250000D01*
X488500000Y10250000D01*
X488500000Y9050000D01*
G37*
X488500000Y9050000D02*
X487300000Y9050000D01*
X487300000Y10250000D01*
X488500000Y10250000D01*
X488500000Y9050000D01*
G36*
X488500000Y11350000D02*
G01*
X487300000Y11350000D01*
X487300000Y12550000D01*
X488500000Y12550000D01*
X488500000Y11350000D01*
G37*
X488500000Y11350000D02*
X487300000Y11350000D01*
X487300000Y12550000D01*
X488500000Y12550000D01*
X488500000Y11350000D01*
G36*
X482400000Y7900000D02*
G01*
X481200000Y7900000D01*
X481200000Y9500000D01*
X482400000Y9500000D01*
X482400000Y7900000D01*
G37*
X482400000Y7900000D02*
X481200000Y7900000D01*
X481200000Y9500000D01*
X482400000Y9500000D01*
X482400000Y7900000D01*
G36*
X482400000Y9800000D02*
G01*
X481200000Y9800000D01*
X481200000Y11400000D01*
X482400000Y11400000D01*
X482400000Y9800000D01*
G37*
X482400000Y9800000D02*
X481200000Y9800000D01*
X481200000Y11400000D01*
X482400000Y11400000D01*
X482400000Y9800000D01*
%TD*%
D11*
%TO.C,LED172*%
X297325000Y17600000D03*
D12*
X298850000Y17600000D03*
%TD*%
D11*
%TO.C,LED100*%
X246325000Y17600000D03*
D12*
X247850000Y17600000D03*
%TD*%
D11*
%TO.C,LED34*%
X675125000Y17700000D03*
D12*
X676650000Y17700000D03*
%TD*%
D11*
%TO.C,LED184*%
X305825000Y17600000D03*
D12*
X307350000Y17600000D03*
%TD*%
D11*
%TO.C,LED93*%
X717625000Y9700000D03*
D12*
X719150000Y9700000D03*
%TD*%
D11*
%TO.C,LED30*%
X355325000Y17600000D03*
D12*
X356850000Y17600000D03*
%TD*%
D11*
%TO.C,LED161*%
X448825000Y9650000D03*
D12*
X450350000Y9650000D03*
%TD*%
D11*
%TO.C,LED92*%
X557825000Y17600000D03*
D12*
X559350000Y17600000D03*
%TD*%
D11*
%TO.C,LED26*%
X35625000Y17600000D03*
D12*
X37150000Y17600000D03*
%TD*%
D11*
%TO.C,LED121*%
X103625000Y9600000D03*
D12*
X105150000Y9600000D03*
%TD*%
D11*
%TO.C,LED198*%
X474325000Y17600000D03*
D12*
X475850000Y17600000D03*
%TD*%
D11*
%TO.C,LED132*%
X902775000Y17775000D03*
D12*
X904300000Y17775000D03*
%TD*%
D11*
%TO.C,LED14*%
X27125000Y17600000D03*
D12*
X28650000Y17600000D03*
%TD*%
D11*
%TO.C,LEDe*%
X186825000Y9600000D03*
D12*
X188350000Y9600000D03*
%TD*%
D13*
%TO.C,LED140*%
X593864999Y17599999D03*
D14*
X591864999Y17599999D03*
%TD*%
D11*
%TO.C,LED12*%
X817775000Y17775000D03*
D12*
X819300000Y17775000D03*
%TD*%
D11*
%TO.C,LED163*%
X608825000Y9600000D03*
D12*
X610350000Y9600000D03*
%TD*%
D11*
%TO.C,LED90*%
X397825000Y17600000D03*
D12*
X399350000Y17600000D03*
%TD*%
D13*
%TO.C,LED138*%
X433864999Y17599999D03*
D14*
X431864999Y17599999D03*
%TD*%
D11*
%TO.C,LED9*%
X658125000Y9700000D03*
D12*
X659650000Y9700000D03*
%TD*%
D11*
%TO.C,LED115*%
X574825000Y9600000D03*
D12*
X576350000Y9600000D03*
%TD*%
D11*
%TO.C,LED201*%
X794125000Y9700000D03*
D12*
X795650000Y9700000D03*
%TD*%
D11*
%TO.C,LED27*%
X195325000Y9600000D03*
D12*
X196850000Y9600000D03*
%TD*%
D11*
%TO.C,LED85*%
X78125000Y9600000D03*
D12*
X79650000Y9600000D03*
%TD*%
D11*
%TO.C,LED22*%
X666625000Y17700000D03*
D12*
X668150000Y17700000D03*
%TD*%
D13*
%TO.C,LED135*%
X273864999Y9599999D03*
D14*
X271864999Y9599999D03*
%TD*%
D13*
%TO.C,LED134*%
X114164999Y17599999D03*
D14*
X112164999Y17599999D03*
%TD*%
D13*
%TO.C,LED72*%
X862314999Y17774999D03*
D14*
X860314999Y17774999D03*
%TD*%
D15*
%TO.C,R12*%
X970300000Y17775000D03*
X970300000Y20700000D03*
%TD*%
D11*
%TO.C,LED102*%
X406325000Y17600000D03*
D12*
X407850000Y17600000D03*
%TD*%
D11*
%TO.C,LED176*%
X617325000Y17600000D03*
D12*
X618850000Y17600000D03*
%TD*%
D11*
%TO.C,LED75*%
X229325000Y9600000D03*
D12*
X230850000Y9600000D03*
%TD*%
D11*
%TO.C,LED112*%
X254825000Y17600000D03*
D12*
X256350000Y17600000D03*
%TD*%
D15*
%TO.C,R3*%
X330850000Y9637500D03*
X330850000Y12562500D03*
%TD*%
%TO.C,R2*%
X171050000Y17637500D03*
X171050000Y20562500D03*
%TD*%
D11*
%TO.C,LED51*%
X212325000Y9600000D03*
D12*
X213850000Y9600000D03*
%TD*%
D11*
%TO.C,LED19*%
X506825000Y9600000D03*
D12*
X508350000Y9600000D03*
%TD*%
D11*
%TO.C,LED109*%
X95125000Y9600000D03*
D12*
X96650000Y9600000D03*
%TD*%
D15*
%TO.C,R1*%
X171150000Y9637500D03*
X171150000Y12562500D03*
%TD*%
D11*
%TO.C,LED49*%
X52625000Y9600000D03*
D12*
X54150000Y9600000D03*
%TD*%
D11*
%TO.C,LED114*%
X414825000Y17600000D03*
D12*
X416350000Y17600000D03*
%TD*%
D11*
%TO.C,LED130*%
X743125000Y17700000D03*
D12*
X744650000Y17700000D03*
%TD*%
D11*
%TO.C,LED156*%
X919775000Y17775000D03*
D12*
X921300000Y17775000D03*
%TD*%
D11*
%TO.C,LED84*%
X868775000Y17775000D03*
D12*
X870300000Y17775000D03*
%TD*%
D13*
%TO.C,LED68*%
X542864999Y17599999D03*
D14*
X540864999Y17599999D03*
%TD*%
D15*
%TO.C,R10*%
X810650000Y17737500D03*
X810650000Y20662500D03*
%TD*%
D11*
%TO.C,LED197*%
X474325000Y9650000D03*
D12*
X475850000Y9650000D03*
%TD*%
D16*
%TO.C,J3*%
X4600000Y23600000D03*
%TD*%
D11*
%TO.C,LED55*%
X532325000Y9600000D03*
D12*
X533850000Y9600000D03*
%TD*%
D11*
%TO.C,LED18*%
X346825000Y17600000D03*
D12*
X348350000Y17600000D03*
%TD*%
D11*
%TO.C,LED118*%
X734625000Y17700000D03*
D12*
X736150000Y17700000D03*
%TD*%
D11*
%TO.C,LED56*%
X532325000Y17600000D03*
D12*
X533850000Y17600000D03*
%TD*%
D11*
%TO.C,LED11*%
X817775000Y9775000D03*
D12*
X819300000Y9775000D03*
%TD*%
D11*
%TO.C,LED149*%
X440325000Y9650000D03*
D12*
X441850000Y9650000D03*
%TD*%
D11*
%TO.C,LED3*%
X178325000Y9600000D03*
D12*
X179850000Y9600000D03*
%TD*%
D11*
%TO.C,LED180*%
X936775000Y17775000D03*
D12*
X938300000Y17775000D03*
%TD*%
D11*
%TO.C,LED193*%
X154625000Y9600000D03*
D12*
X156150000Y9600000D03*
%TD*%
D11*
%TO.C,LED129*%
X743125000Y9700000D03*
D12*
X744650000Y9700000D03*
%TD*%
D11*
%TO.C,LED38*%
X44125000Y17600000D03*
D12*
X45650000Y17600000D03*
%TD*%
D11*
%TO.C,LED158*%
X129125000Y17600000D03*
D12*
X130650000Y17600000D03*
%TD*%
D11*
%TO.C,LED123*%
X263325000Y9600000D03*
D12*
X264850000Y9600000D03*
%TD*%
D17*
%TO.C,J2*%
X4600000Y13600000D03*
%TD*%
D11*
%TO.C,LED5*%
X338325000Y9650000D03*
D12*
X339850000Y9650000D03*
%TD*%
D11*
%TO.C,LED171*%
X297325000Y9600000D03*
D12*
X298850000Y9600000D03*
%TD*%
D11*
%TO.C,LED47*%
X843275000Y9775000D03*
D12*
X844800000Y9775000D03*
%TD*%
D11*
%TO.C,LED37*%
X44125000Y9600000D03*
D12*
X45650000Y9600000D03*
%TD*%
D11*
%TO.C,LED202*%
X794125000Y17700000D03*
D12*
X795650000Y17700000D03*
%TD*%
D11*
%TO.C,LED117*%
X734625000Y9700000D03*
D12*
X736150000Y9700000D03*
%TD*%
D11*
%TO.C,LED119*%
X894275000Y9775000D03*
D12*
X895800000Y9775000D03*
%TD*%
D11*
%TO.C,LED43*%
X523825000Y9600000D03*
D12*
X525350000Y9600000D03*
%TD*%
D11*
%TO.C,LED150*%
X440325000Y17600000D03*
D12*
X441850000Y17600000D03*
%TD*%
D11*
%TO.C,LED35*%
X834775000Y9775000D03*
D12*
X836300000Y9775000D03*
%TD*%
D11*
%TO.C,LED165*%
X768625000Y9700000D03*
D12*
X770150000Y9700000D03*
%TD*%
D11*
%TO.C,LED79*%
X549325000Y9600000D03*
D12*
X550850000Y9600000D03*
%TD*%
D11*
%TO.C,LED77*%
X389325000Y9650000D03*
D12*
X390850000Y9650000D03*
%TD*%
D11*
%TO.C,LED39*%
X203825000Y9600000D03*
D12*
X205350000Y9600000D03*
%TD*%
D11*
%TO.C,LED41*%
X363825000Y9650000D03*
D12*
X365350000Y9650000D03*
%TD*%
D11*
%TO.C,LED106*%
X726125000Y17700000D03*
D12*
X727650000Y17700000D03*
%TD*%
D11*
%TO.C,LED2*%
X18625000Y17600000D03*
D12*
X20150000Y17600000D03*
%TD*%
D11*
%TO.C,LED24*%
X826275000Y17775000D03*
D12*
X827800000Y17775000D03*
%TD*%
D11*
%TO.C,LED59*%
X851775000Y9775000D03*
D12*
X853300000Y9775000D03*
%TD*%
D11*
%TO.C,LED32*%
X515325000Y17600000D03*
D12*
X516850000Y17600000D03*
%TD*%
D11*
%TO.C,LED10*%
X658125000Y17700000D03*
D12*
X659650000Y17700000D03*
%TD*%
D11*
%TO.C,LED28*%
X195325000Y17600000D03*
D12*
X196850000Y17600000D03*
%TD*%
D11*
%TO.C,LED186*%
X465825000Y17600000D03*
D12*
X467350000Y17600000D03*
%TD*%
D11*
%TO.C,LED191*%
X945275000Y9775000D03*
D12*
X946800000Y9775000D03*
%TD*%
D11*
%TO.C,LED160*%
X288825000Y17600000D03*
D12*
X290350000Y17600000D03*
%TD*%
D11*
%TO.C,LED147*%
X280325000Y9600000D03*
D12*
X281850000Y9600000D03*
%TD*%
D11*
%TO.C,LED78*%
X389325000Y17600000D03*
D12*
X390850000Y17600000D03*
%TD*%
D13*
%TO.C,LED67*%
X542864999Y9599999D03*
D14*
X540864999Y9599999D03*
%TD*%
D11*
%TO.C,LED104*%
X566325000Y17600000D03*
D12*
X567850000Y17600000D03*
%TD*%
D16*
%TO.C,J6*%
X976000000Y23700000D03*
%TD*%
D15*
%TO.C,R11*%
X970000000Y9812500D03*
X970000000Y12737500D03*
%TD*%
D11*
%TO.C,LED80*%
X549325000Y17600000D03*
D12*
X550850000Y17600000D03*
%TD*%
D11*
%TO.C,LED82*%
X709125000Y17700000D03*
D12*
X710650000Y17700000D03*
%TD*%
D11*
%TO.C,LED21*%
X666625000Y9700000D03*
D12*
X668150000Y9700000D03*
%TD*%
D11*
%TO.C,LED188*%
X625825000Y17600000D03*
D12*
X627350000Y17600000D03*
%TD*%
D11*
%TO.C,LED4*%
X178325000Y17600000D03*
D12*
X179850000Y17600000D03*
%TD*%
D11*
%TO.C,LED120*%
X894275000Y17775000D03*
D12*
X895800000Y17775000D03*
%TD*%
D11*
%TO.C,LED45*%
X683625000Y9700000D03*
D12*
X685150000Y9700000D03*
%TD*%
D11*
%TO.C,LED126*%
X423325000Y17600000D03*
D12*
X424850000Y17600000D03*
%TD*%
D11*
%TO.C,LED153*%
X760125000Y9700000D03*
D12*
X761650000Y9700000D03*
%TD*%
D11*
%TO.C,LED73*%
X69625000Y9600000D03*
D12*
X71150000Y9600000D03*
%TD*%
D11*
%TO.C,LED97*%
X86625000Y9600000D03*
D12*
X88150000Y9600000D03*
%TD*%
D11*
%TO.C,LED48*%
X843275000Y17775000D03*
D12*
X844800000Y17775000D03*
%TD*%
D13*
%TO.C,LED64*%
X222864999Y17599999D03*
D14*
X220864999Y17599999D03*
%TD*%
D11*
%TO.C,LED25*%
X35625000Y9600000D03*
D12*
X37150000Y9600000D03*
%TD*%
D11*
%TO.C,LED203*%
X953775000Y9775000D03*
D12*
X955300000Y9775000D03*
%TD*%
D11*
%TO.C,LED166*%
X768625000Y17700000D03*
D12*
X770150000Y17700000D03*
%TD*%
D11*
%TO.C,LED170*%
X137625000Y17600000D03*
D12*
X139150000Y17600000D03*
%TD*%
D11*
%TO.C,LED116*%
X574825000Y17600000D03*
D12*
X576350000Y17600000D03*
%TD*%
D11*
%TO.C,LED91*%
X557825000Y9600000D03*
D12*
X559350000Y9600000D03*
%TD*%
D11*
%TO.C,LED162*%
X448825000Y17600000D03*
D12*
X450350000Y17600000D03*
%TD*%
D13*
%TO.C,LED71*%
X862314999Y9774999D03*
D14*
X860314999Y9774999D03*
%TD*%
D11*
%TO.C,LED101*%
X406325000Y9650000D03*
D12*
X407850000Y9650000D03*
%TD*%
D11*
%TO.C,LED8*%
X498325000Y17600000D03*
D12*
X499850000Y17600000D03*
%TD*%
D15*
%TO.C,R5*%
X490850000Y9650000D03*
X490850000Y12575000D03*
%TD*%
D13*
%TO.C,LED66*%
X382864999Y17599999D03*
D14*
X380864999Y17599999D03*
%TD*%
D11*
%TO.C,LED178*%
X777125000Y17700000D03*
D12*
X778650000Y17700000D03*
%TD*%
D13*
%TO.C,LED61*%
X63164999Y9599999D03*
D14*
X61164999Y9599999D03*
%TD*%
D16*
%TO.C,J4*%
X975700000Y3700000D03*
%TD*%
D11*
%TO.C,LED164*%
X608825000Y17600000D03*
D12*
X610350000Y17600000D03*
%TD*%
D13*
%TO.C,LED65*%
X382864999Y9649999D03*
D14*
X380864999Y9649999D03*
%TD*%
D11*
%TO.C,LED127*%
X583325000Y9600000D03*
D12*
X584850000Y9600000D03*
%TD*%
D11*
%TO.C,LED17*%
X346825000Y9650000D03*
D12*
X348350000Y9650000D03*
%TD*%
D11*
%TO.C,LED54*%
X372325000Y17600000D03*
D12*
X373850000Y17600000D03*
%TD*%
D11*
%TO.C,LED111*%
X254825000Y9600000D03*
D12*
X256350000Y9600000D03*
%TD*%
D11*
%TO.C,LED42*%
X363825000Y17600000D03*
D12*
X365350000Y17600000D03*
%TD*%
D11*
%TO.C,LED96*%
X877275000Y17775000D03*
D12*
X878800000Y17775000D03*
%TD*%
D13*
%TO.C,LED141*%
X753664999Y9699999D03*
D14*
X751664999Y9699999D03*
%TD*%
D11*
%TO.C,LED159*%
X288825000Y9600000D03*
D12*
X290350000Y9600000D03*
%TD*%
D11*
%TO.C,LED60*%
X851775000Y17775000D03*
D12*
X853300000Y17775000D03*
%TD*%
D11*
%TO.C,LED131*%
X902775000Y9775000D03*
D12*
X904300000Y9775000D03*
%TD*%
D11*
%TO.C,LED23*%
X826275000Y9775000D03*
D12*
X827800000Y9775000D03*
%TD*%
D11*
%TO.C,LED44*%
X523825000Y17600000D03*
D12*
X525350000Y17600000D03*
%TD*%
D11*
%TO.C,LED1*%
X18625000Y9600000D03*
D12*
X20150000Y9600000D03*
%TD*%
D11*
%TO.C,LED187*%
X625825000Y9600000D03*
D12*
X627350000Y9600000D03*
%TD*%
D11*
%TO.C,LED154*%
X760125000Y17700000D03*
D12*
X761650000Y17700000D03*
%TD*%
D11*
%TO.C,LED46*%
X683625000Y17700000D03*
D12*
X685150000Y17700000D03*
%TD*%
D11*
%TO.C,LED168*%
X928275000Y17775000D03*
D12*
X929800000Y17775000D03*
%TD*%
D11*
%TO.C,LED196*%
X314325000Y17600000D03*
D12*
X315850000Y17600000D03*
%TD*%
D11*
%TO.C,LED88*%
X237825000Y17600000D03*
D12*
X239350000Y17600000D03*
%TD*%
D11*
%TO.C,LED31*%
X515325000Y9600000D03*
D12*
X516850000Y9600000D03*
%TD*%
D11*
%TO.C,LED145*%
X120625000Y9600000D03*
D12*
X122150000Y9600000D03*
%TD*%
D11*
%TO.C,LED20*%
X506825000Y17600000D03*
D12*
X508350000Y17600000D03*
%TD*%
D11*
%TO.C,LED122*%
X103625000Y17600000D03*
D12*
X105150000Y17600000D03*
%TD*%
D11*
%TO.C,LED105*%
X726125000Y9700000D03*
D12*
X727650000Y9700000D03*
%TD*%
D15*
%TO.C,R7*%
X650750000Y9637500D03*
X650750000Y12562500D03*
%TD*%
D11*
%TO.C,LED177*%
X777125000Y9700000D03*
D12*
X778650000Y9700000D03*
%TD*%
D11*
%TO.C,LED113*%
X414825000Y9650000D03*
D12*
X416350000Y9650000D03*
%TD*%
D11*
%TO.C,LED53*%
X372325000Y9650000D03*
D12*
X373850000Y9650000D03*
%TD*%
D11*
%TO.C,LED195*%
X314325000Y9600000D03*
D12*
X315850000Y9600000D03*
%TD*%
D11*
%TO.C,LED204*%
X953775000Y17775000D03*
D12*
X955300000Y17775000D03*
%TD*%
D11*
%TO.C,LED175*%
X617325000Y9600000D03*
D12*
X618850000Y9600000D03*
%TD*%
D11*
%TO.C,LED107*%
X885775000Y9775000D03*
D12*
X887300000Y9775000D03*
%TD*%
D11*
%TO.C,LED146*%
X120625000Y17600000D03*
D12*
X122150000Y17600000D03*
%TD*%
D15*
%TO.C,R4*%
X330750000Y17637500D03*
X330750000Y20562500D03*
%TD*%
D13*
%TO.C,LED139*%
X593864999Y9599999D03*
D14*
X591864999Y9599999D03*
%TD*%
D11*
%TO.C,LED124*%
X263325000Y17600000D03*
D12*
X264850000Y17600000D03*
%TD*%
D11*
%TO.C,LED157*%
X129125000Y9600000D03*
D12*
X130650000Y9600000D03*
%TD*%
D13*
%TO.C,LED144*%
X913314999Y17774999D03*
D14*
X911314999Y17774999D03*
%TD*%
D11*
%TO.C,LED108*%
X885775000Y17775000D03*
D12*
X887300000Y17775000D03*
%TD*%
D13*
%TO.C,LED142*%
X753664999Y17699999D03*
D14*
X751664999Y17699999D03*
%TD*%
D11*
%TO.C,LED52*%
X212325000Y17600000D03*
D12*
X213850000Y17600000D03*
%TD*%
D11*
%TO.C,LED6*%
X338325000Y17600000D03*
D12*
X339850000Y17600000D03*
%TD*%
D13*
%TO.C,LED133*%
X114164999Y9599999D03*
D14*
X112164999Y9599999D03*
%TD*%
D11*
%TO.C,LED98*%
X86625000Y17600000D03*
D12*
X88150000Y17600000D03*
%TD*%
D11*
%TO.C,LED182*%
X146125000Y17600000D03*
D12*
X147650000Y17600000D03*
%TD*%
D13*
%TO.C,LED143*%
X913314999Y9774999D03*
D14*
X911314999Y9774999D03*
%TD*%
D11*
%TO.C,LED181*%
X146125000Y9600000D03*
D12*
X147650000Y9600000D03*
%TD*%
D11*
%TO.C,LED95*%
X877275000Y9775000D03*
D12*
X878800000Y9775000D03*
%TD*%
D11*
%TO.C,LED125*%
X423325000Y9650000D03*
D12*
X424850000Y9650000D03*
%TD*%
D11*
%TO.C,LED173*%
X457325000Y9650000D03*
D12*
X458850000Y9650000D03*
%TD*%
D11*
%TO.C,LED183*%
X305825000Y9600000D03*
D12*
X307350000Y9600000D03*
%TD*%
D11*
%TO.C,LED152*%
X600325000Y17600000D03*
D12*
X601850000Y17600000D03*
%TD*%
D11*
%TO.C,LED103*%
X566325000Y9600000D03*
D12*
X567850000Y9600000D03*
%TD*%
D11*
%TO.C,LED128*%
X583325000Y17600000D03*
D12*
X584850000Y17600000D03*
%TD*%
D11*
%TO.C,LED83*%
X868775000Y9775000D03*
D12*
X870300000Y9775000D03*
%TD*%
D13*
%TO.C,LED136*%
X273864999Y17599999D03*
D14*
X271864999Y17599999D03*
%TD*%
D13*
%TO.C,LED137*%
X433864999Y9649999D03*
D14*
X431864999Y9649999D03*
%TD*%
D11*
%TO.C,LED76*%
X229325000Y17600000D03*
D12*
X230850000Y17600000D03*
%TD*%
D13*
%TO.C,LED63*%
X222864999Y9599999D03*
D14*
X220864999Y9599999D03*
%TD*%
D11*
%TO.C,LED110*%
X95125000Y17600000D03*
D12*
X96650000Y17600000D03*
%TD*%
D11*
%TO.C,LED155*%
X919775000Y9775000D03*
D12*
X921300000Y9775000D03*
%TD*%
D11*
%TO.C,LED58*%
X692125000Y17700000D03*
D12*
X693650000Y17700000D03*
%TD*%
D13*
%TO.C,LED70*%
X702664999Y17699999D03*
D14*
X700664999Y17699999D03*
%TD*%
D11*
%TO.C,LED74*%
X69625000Y17600000D03*
D12*
X71150000Y17600000D03*
%TD*%
D11*
%TO.C,LED148*%
X280325000Y17600000D03*
D12*
X281850000Y17600000D03*
%TD*%
D11*
%TO.C,LED169*%
X137625000Y9600000D03*
D12*
X139150000Y9600000D03*
%TD*%
D17*
%TO.C,J5*%
X975700000Y14500000D03*
%TD*%
D11*
%TO.C,LED87*%
X237825000Y9600000D03*
D12*
X239350000Y9600000D03*
%TD*%
D11*
%TO.C,LED199*%
X634325000Y9600000D03*
D12*
X635850000Y9600000D03*
%TD*%
D15*
%TO.C,R6*%
X490850000Y17587500D03*
X490850000Y20512500D03*
%TD*%
D11*
%TO.C,LED200*%
X634325000Y17600000D03*
D12*
X635850000Y17600000D03*
%TD*%
D11*
%TO.C,LED16*%
X186825000Y17600000D03*
D12*
X188350000Y17600000D03*
%TD*%
D11*
%TO.C,LED185*%
X465825000Y9650000D03*
D12*
X467350000Y9650000D03*
%TD*%
D11*
%TO.C,LED57*%
X692125000Y9700000D03*
D12*
X693650000Y9700000D03*
%TD*%
D11*
%TO.C,LED13*%
X27125000Y9600000D03*
D12*
X28650000Y9600000D03*
%TD*%
D11*
%TO.C,LED99*%
X246325000Y9600000D03*
D12*
X247850000Y9600000D03*
%TD*%
D11*
%TO.C,LED7*%
X498325000Y9600000D03*
D12*
X499850000Y9600000D03*
%TD*%
D15*
%TO.C,R8*%
X650850000Y17600000D03*
X650850000Y20525000D03*
%TD*%
D11*
%TO.C,LED40*%
X203825000Y17600000D03*
D12*
X205350000Y17600000D03*
%TD*%
D11*
%TO.C,LED89*%
X397825000Y9650000D03*
D12*
X399350000Y9650000D03*
%TD*%
D11*
%TO.C,LED33*%
X675125000Y9700000D03*
D12*
X676650000Y9700000D03*
%TD*%
D11*
%TO.C,LED192*%
X945275000Y17775000D03*
D12*
X946800000Y17775000D03*
%TD*%
D11*
%TO.C,LED36*%
X834775000Y17775000D03*
D12*
X836300000Y17775000D03*
%TD*%
D11*
%TO.C,LED81*%
X709125000Y9700000D03*
D12*
X710650000Y9700000D03*
%TD*%
D11*
%TO.C,LED94*%
X717625000Y17700000D03*
D12*
X719150000Y17700000D03*
%TD*%
D13*
%TO.C,LED62*%
X63164999Y17599999D03*
D14*
X61164999Y17599999D03*
%TD*%
D11*
%TO.C,LED151*%
X600325000Y9600000D03*
D12*
X601850000Y9600000D03*
%TD*%
D11*
%TO.C,LED29*%
X355325000Y9650000D03*
D12*
X356850000Y9650000D03*
%TD*%
D11*
%TO.C,LED190*%
X785625000Y17700000D03*
D12*
X787150000Y17700000D03*
%TD*%
D16*
%TO.C,J1*%
X4600000Y3600000D03*
%TD*%
D11*
%TO.C,LED50*%
X52625000Y17600000D03*
D12*
X54150000Y17600000D03*
%TD*%
D11*
%TO.C,LED189*%
X785625000Y9700000D03*
D12*
X787150000Y9700000D03*
%TD*%
D11*
%TO.C,LED179*%
X936775000Y9775000D03*
D12*
X938300000Y9775000D03*
%TD*%
D11*
%TO.C,LED167*%
X928275000Y9775000D03*
D12*
X929800000Y9775000D03*
%TD*%
D11*
%TO.C,LED86*%
X78125000Y17600000D03*
D12*
X79650000Y17600000D03*
%TD*%
D11*
%TO.C,LED174*%
X457325000Y17600000D03*
D12*
X458850000Y17600000D03*
%TD*%
D15*
%TO.C,R9*%
X810550000Y9737500D03*
X810550000Y12662500D03*
%TD*%
D11*
%TO.C,LED194*%
X154625000Y17600000D03*
D12*
X156150000Y17600000D03*
%TD*%
D13*
%TO.C,LED69*%
X702664999Y9699999D03*
D14*
X700664999Y9699999D03*
%TD*%
M02*
